<svg width="56" height="56" viewBox="0 0 56 56" fill="none" xmlns="http://www.w3.org/2000/svg">
<path d="M48.9999 46.6666H53.6666V51.3333H2.33325V46.6666H6.99992V6.99996C6.99992 6.38112 7.24575 5.78763 7.68334 5.35004C8.12092 4.91246 8.71441 4.66663 9.33325 4.66663H46.6666C47.2854 4.66663 47.8789 4.91246 48.3165 5.35004C48.7541 5.78763 48.9999 6.38112 48.9999 6.99996V46.6666ZM18.6666 25.6666V30.3333H25.6666V25.6666H18.6666ZM18.6666 16.3333V21H25.6666V16.3333H18.6666ZM18.6666 35V39.6666H25.6666V35H18.6666ZM30.3333 35V39.6666H37.3333V35H30.3333ZM30.3333 25.6666V30.3333H37.3333V25.6666H30.3333ZM30.3333 16.3333V21H37.3333V16.3333H30.3333Z" fill="#EDD100"/>
</svg>
