<svg width="32" height="32" viewBox="0 0 32 32" fill="none" xmlns="http://www.w3.org/2000/svg">
<path d="M22.3336 21H23.6669V22.3333H9.00024V21H10.3336V9.66667C10.3336 9.48986 10.4038 9.32029 10.5288 9.19526C10.6539 9.07024 10.8234 9 11.0002 9H21.6669C21.8437 9 22.0133 9.07024 22.1383 9.19526C22.2633 9.32029 22.3336 9.48986 22.3336 9.66667V21ZM13.6669 15V16.3333H15.6669V15H13.6669ZM13.6669 12.3333V13.6667H15.6669V12.3333H13.6669ZM13.6669 17.6667V19H15.6669V17.6667H13.6669ZM17.0002 17.6667V19H19.0002V17.6667H17.0002ZM17.0002 15V16.3333H19.0002V15H17.0002ZM17.0002 12.3333V13.6667H19.0002V12.3333H17.0002Z" fill="#27272A"/>
<rect x="0.5" y="0.5" width="31" height="31" rx="15.5" stroke="#27272A"/>
</svg>
