<svg width="234" height="234" viewBox="0 0 234 234" fill="none" xmlns="http://www.w3.org/2000/svg">
<path d="M117.023 234C93.8816 234.005 71.2586 227.146 52.015 214.293C32.7715 201.44 17.7717 183.168 8.91274 161.79C0.0537654 140.411 -2.2665 116.886 2.24537 94.1885C6.75725 71.4913 17.8986 50.6417 34.2604 34.2767C50.6223 17.9116 71.4696 6.76619 94.166 2.24986C116.862 -2.26648 140.388 0.0491715 161.769 8.90395C183.149 17.7587 201.423 32.7549 214.28 51.9959C227.137 71.237 234 93.8586 234 117C233.951 148.011 221.612 177.739 199.686 199.67C177.76 221.6 148.034 233.945 117.023 234ZM117.023 2.78029C94.426 2.77575 72.3351 9.47268 53.5445 22.0241C34.7539 34.5755 20.1075 52.4175 11.4579 73.2936C2.80832 94.1696 0.544 117.142 4.95135 139.305C9.3587 161.468 20.2397 181.826 36.2182 197.805C52.1968 213.783 72.555 224.664 94.718 229.072C116.881 233.479 139.853 231.215 160.729 222.565C181.605 213.915 199.448 199.269 211.999 180.478C224.55 161.688 231.247 139.597 231.243 117C231.206 86.7183 219.161 57.6872 197.748 36.2748C176.336 14.8623 147.305 2.81678 117.023 2.78029Z" fill="#777779"/>
<path d="M117.104 7.92513C95.5938 7.92513 74.5663 14.2984 56.6812 26.2389C38.796 38.1793 24.8567 55.1507 16.626 75.0067C8.39528 94.8626 6.24292 116.711 10.4411 137.789C14.6393 158.868 24.9995 178.228 40.2114 193.424C55.4233 208.619 74.8036 218.966 95.9015 223.156C116.999 227.346 138.867 225.19 158.739 216.963C178.611 208.735 195.594 194.805 207.542 176.933C219.489 159.061 225.864 138.051 225.859 116.56C225.823 87.7554 214.352 60.1414 193.964 39.7757C173.576 19.41 145.935 7.95551 117.104 7.92513ZM66.5422 182.439L52.8674 200.809C50.5232 199.018 48.2249 197.135 45.9726 195.16L61.463 178.374C63.2557 179.683 64.9334 181.038 66.6571 182.37L66.5422 182.439ZM68.2659 183.725C70.2654 185.171 72.3339 186.549 74.4483 187.835L62.9569 207.583C60.0611 205.868 57.2648 204.016 54.5682 202.026L68.2659 183.725ZM76.3329 188.914C78.2175 189.97 80.1251 190.958 82.1016 191.876L72.7706 212.703C70.0816 211.463 67.4385 210.108 64.8645 208.662L76.3329 188.914ZM84.0781 192.749C85.8478 193.53 87.6864 194.241 89.548 194.884L82.2624 216.538C79.7114 215.642 77.1833 214.678 74.7471 213.599L84.0781 192.749ZM91.5935 195.596C93.639 196.239 95.7074 196.813 97.8218 197.318L92.9725 219.546C90.0766 218.857 87.2267 218.076 84.4228 217.25L91.5935 195.596ZM99.9362 197.892C102.235 198.398 104.786 198.788 107.268 199.087L104.969 221.796C101.591 221.406 98.2815 220.878 95.0179 220.189L99.9362 197.892ZM109.428 199.316C111.566 199.5 113.726 199.615 115.909 199.638V222.6C112.922 222.6 109.957 222.416 107.038 222.141L109.428 199.316ZM118.07 199.638C120.23 199.638 122.367 199.5 124.505 199.316L126.803 222.026C123.907 222.301 120.989 222.462 118.024 222.485L118.07 199.638ZM126.688 198.926C128.849 198.673 130.986 198.352 133.1 197.938L137.812 220.281C134.947 220.862 132.028 221.322 129.055 221.658L126.688 198.926ZM135.215 197.479C137.122 197.043 139.03 196.561 140.892 196.01L147.786 217.801C145.235 218.582 142.615 219.247 139.972 219.821L135.215 197.479ZM142.937 195.344C145.006 194.678 147.051 193.92 149.051 193.047L158.129 214.012C155.417 215.16 152.636 216.17 149.809 217.089L142.937 195.344ZM151.027 192.198C153.325 191.187 155.486 190.085 157.646 188.868L169.137 208.639C166.219 210.269 163.208 211.785 160.151 213.231L151.027 192.198ZM159.508 187.789C161.369 186.687 163.185 185.493 164.932 184.23L178.377 202.6C176.078 204.322 173.504 205.952 170.953 207.468L159.508 187.789ZM166.701 182.99C168.08 181.957 169.413 180.854 170.723 179.752L185.731 196.951C183.915 198.512 182.054 200.028 180.146 201.543L166.701 182.99ZM117.104 196.63C101.254 196.63 85.7595 191.934 72.5804 183.135C59.4013 174.337 49.1294 161.832 43.0637 147.201C36.998 132.57 35.411 116.471 38.5032 100.939C41.5955 85.4071 49.2282 71.1401 60.4361 59.9421C71.644 48.7442 85.9238 41.1183 101.47 38.0288C117.015 34.9393 133.129 36.5249 147.773 42.5852C162.417 48.6455 174.933 58.9082 183.739 72.0756C192.545 85.243 197.245 100.724 197.245 116.56C197.221 137.788 188.77 158.14 173.746 173.151C158.722 188.162 138.352 196.605 117.104 196.63ZM50.845 66.6168L32.4587 53.0691C34.4812 50.3825 36.6416 47.8107 38.8939 45.3308L55.6254 60.8763C53.9706 62.7132 52.4078 64.6191 50.845 66.6168ZM49.5579 68.362C48.2939 70.1071 47.0988 71.9211 45.9726 73.7581L26.2533 62.277C27.8621 59.7281 29.4939 57.2023 31.2176 54.8142L49.5579 68.362ZM44.9613 75.641C43.9961 77.3173 43.0768 79.0395 42.2264 80.8076L21.5419 71.2323C22.714 68.7983 23.978 66.4331 25.311 64.091L44.9613 75.641ZM41.3301 82.6905C40.4567 84.6652 39.6293 86.663 38.8939 88.7066L17.2671 81.3357C18.2553 78.5343 19.3815 75.8018 20.5766 73.1152L41.3301 82.6905ZM38.2044 90.8191C37.446 93.1154 36.7795 95.5494 36.2279 97.9604L13.8886 93.1383C14.6201 89.8649 15.5176 86.6307 16.5776 83.4482L38.2044 90.8191ZM35.7452 100.004C35.3086 102.117 34.9868 104.252 34.734 106.411L12.004 104C12.3564 101.03 12.8161 98.1135 13.383 95.2509L35.7452 100.004ZM34.4812 108.569C34.2743 110.613 34.1824 112.702 34.1364 114.815L11.2685 114.631C11.2685 111.761 11.4754 108.89 11.7512 106.066L34.4812 108.569ZM34.0905 117.134C34.0905 119.315 34.2284 121.474 34.4122 123.609L11.6593 125.906C11.4064 122.989 11.2456 120.027 11.2456 117.042L34.0905 117.134ZM34.5961 125.768C34.8719 128.248 35.2396 130.682 35.7223 133.093L13.383 137.8C12.7165 134.539 12.2108 131.21 11.8431 127.857L34.5961 125.768ZM36.2049 135.205C36.6875 137.318 37.2391 139.407 37.8826 141.474L16.1639 148.569C15.2676 145.768 14.5091 142.921 13.8656 140.027L36.2049 135.205ZM38.5032 143.518C39.1467 145.355 39.8362 147.192 40.5946 148.983L19.6573 158.168C18.6001 155.711 17.6578 153.185 16.7844 150.636L38.5032 143.518ZM41.6518 150.866C42.5711 152.84 43.5364 154.769 44.5706 156.652L24.7135 167.95C23.2886 165.378 21.9556 162.737 20.7375 160.051L41.6518 150.866ZM45.5359 158.466C46.8076 160.594 48.1636 162.661 49.6039 164.666L31.2176 178.191C29.2641 175.481 27.4255 172.657 25.7247 169.764L45.5359 158.466ZM50.845 166.503C52.155 168.225 53.5339 169.878 54.9589 171.509L38.0435 186.848C36.09 184.551 34.2054 182.255 32.4127 179.959L50.845 166.503ZM167.529 50.7728L181.318 32.403C183.663 34.194 185.961 36.0769 188.213 38.0517L172.654 54.9061C170.953 53.4594 169.275 52.0817 167.552 50.7728H167.529ZM165.805 49.464C163.805 48.0174 161.737 46.6396 159.623 45.3767L171.114 25.6291C174.01 27.3513 176.791 29.1882 179.503 31.163L165.805 49.464ZM157.738 44.2975C155.853 43.2412 153.946 42.2538 151.969 41.3353L161.3 20.4855C163.989 21.7255 166.632 23.0803 169.183 24.5499L157.738 44.2975ZM149.993 40.4398C148.2 39.6591 146.384 38.9702 144.546 38.3043L151.808 16.6738C154.36 17.5463 156.865 18.5337 159.324 19.613L149.993 40.4398ZM142.5 37.6154C140.432 36.9495 138.341 36.3755 136.226 35.8703L141.213 13.5968C144.109 14.2627 146.959 15.0664 149.763 15.8931L142.5 37.6154ZM134.135 35.3192C131.836 34.814 129.262 34.4466 126.803 34.1481L129.101 11.4384C132.457 11.8058 135.789 12.3569 139.053 13.0457L134.135 35.3192ZM124.643 33.9185C122.505 33.7348 120.345 33.62 118.162 33.597V10.8184C121.149 10.8184 124.091 11.0021 127.033 11.2776L124.643 33.9185ZM116.001 33.597C113.841 33.597 111.703 33.7348 109.566 33.9185L107.268 11.1858C110.164 10.9332 113.082 10.7725 116.047 10.7495L116.001 33.597ZM107.429 34.1481C105.268 34.4007 103.131 34.7222 101.016 35.1355L96.3049 12.8391C99.1089 12.265 102.12 11.8287 105.084 11.5073L107.429 34.1481ZM98.902 35.5947C96.9715 36.0081 95.0869 36.5132 93.2253 37.0643L86.3304 15.2731C88.8815 14.4924 91.5015 13.8265 94.1446 13.2294L98.902 35.5947ZM91.1568 37.7302C89.1113 38.3961 87.0659 39.1539 85.0893 40.0265L76.126 19.0848C78.838 17.9367 81.6189 16.9264 84.4458 16.0079L91.1568 37.7302ZM83.1128 40.8531C80.8145 41.8635 78.5163 42.9886 76.4708 44.2056L64.9794 24.435C67.8952 22.7534 70.8944 21.2206 73.9657 19.8426L83.1128 40.8531ZM74.6092 45.2848C72.7476 46.387 70.9319 47.5811 69.1623 48.821L55.7403 30.4512C58.0386 28.752 60.6126 27.1216 63.1637 25.6061L74.6092 45.2848ZM67.4156 50.084C66.0366 51.1173 64.7036 52.1965 63.3936 53.3217L48.3858 36.0999C50.2014 34.5614 52.063 33.0459 53.9706 31.5074L67.4156 50.084ZM198.418 100.073L220.918 95.3197C221.584 98.5804 222.09 101.887 222.458 105.262L199.705 107.559C199.337 104.987 198.969 102.553 198.464 100.142L198.418 100.073ZM197.958 97.9604C197.475 95.8479 196.924 93.7353 196.28 91.6917L217.999 84.5734C218.895 87.3748 219.631 90.2451 220.297 93.1383L197.958 97.9604ZM195.66 89.6481C195.016 87.7881 194.327 85.9511 193.568 84.1601L214.506 74.9751C215.563 77.4321 216.505 79.9579 217.378 82.5068L195.66 89.6481ZM192.672 82.2083C191.776 80.2335 190.81 78.3047 189.776 76.3988L209.61 65.1013C211.058 67.6731 212.391 70.3367 213.609 73.0233L192.672 82.2083ZM188.742 74.6077C187.478 72.4722 186.122 70.4056 184.674 68.3849L203.06 54.8831C205.021 57.5926 206.852 60.4017 208.553 63.3103L188.742 74.6077ZM183.341 66.6168C182.031 64.8947 180.652 63.2184 179.227 61.611L196.142 46.2493C198.096 48.5455 199.98 50.7269 201.773 53.138L183.341 66.6168ZM183.341 166.526L201.727 180.051C199.705 182.737 197.544 185.309 195.292 187.789L178.56 172.244C180.238 170.43 181.847 168.524 183.295 166.549L183.341 166.526ZM184.628 164.781C185.892 163.013 187.087 161.222 188.213 159.362L207.932 170.843C206.393 173.369 204.761 175.826 203.037 178.237L184.628 164.781ZM189.224 157.502C190.19 155.803 191.109 154.08 191.959 152.335L212.644 161.91C211.472 164.344 210.208 166.71 208.875 169.029L189.224 157.502ZM192.856 150.36C193.729 148.386 194.556 146.388 195.292 144.344L216.919 151.715C215.93 154.517 214.804 157.249 213.609 159.936L192.856 150.36ZM196.004 142.393C196.763 140.096 197.429 137.662 197.981 135.228L220.32 140.096C219.589 143.37 218.691 146.604 217.631 149.786L196.004 142.393ZM198.464 133.208C198.9 131.095 199.222 128.96 199.475 126.801L222.205 129.281C221.86 132.22 221.4 135.159 220.826 138.03L198.464 133.208ZM199.728 124.643C199.934 122.576 200.026 120.509 200.072 118.397L222.94 118.558C222.94 121.451 222.733 124.298 222.458 127.123L199.728 124.643ZM200.095 116.238C200.095 114.057 199.98 111.899 199.797 109.763L222.55 107.467C222.802 110.383 222.963 113.322 222.963 116.307L200.095 116.238ZM194.671 44.8256L177.756 60.1644C176.584 58.9245 175.458 57.7075 174.125 56.5134L189.615 39.728C191.362 41.3583 193.04 42.9197 194.671 44.6878V44.8256ZM46.777 37.5925L61.7848 54.7912C60.176 56.2379 58.6132 57.7534 57.1882 59.3837L40.4797 43.8382C42.4332 41.6109 44.5706 39.5672 46.777 37.5925ZM39.5374 188.455L56.4298 173.093C57.5942 174.348 58.8123 175.565 60.084 176.744L44.5936 193.53C42.8469 191.899 41.1462 190.2 39.5374 188.455ZM187.432 195.55L172.424 178.329C174.033 176.905 175.573 175.389 177.021 173.736L193.729 189.282C191.753 191.509 189.638 193.576 187.432 195.55Z" fill="#777779"/>
</svg>
