<svg width="131" height="44" viewBox="0 0 131 44" fill="none" xmlns="http://www.w3.org/2000/svg">
  <path
    d="M50.0903 26.8224V12.7174C50.0903 12.0915 50.4747 11.6965 51.0777 11.6965C51.6807 11.6965 52.065 12.0915 52.065 12.7174V18.6997H60.759V12.7174C60.759 12.0915 61.1433 11.6965 61.7463 11.6965C62.3493 11.6965 62.7337 12.0915 62.7337 12.7174V26.8224C62.7337 27.4483 62.3511 27.8432 61.7463 27.8432C61.1416 27.8432 60.759 27.4483 60.759 26.8224V20.4751H52.065V26.8224C52.065 27.4483 51.6807 27.8432 51.0777 27.8432C50.4747 27.8432 50.0903 27.4483 50.0903 26.8224Z"
    fill="white"
  />
  <path
    d="M67.1575 26.6691V12.8709C67.1575 12.245 67.5418 11.8501 68.1448 11.8501H76.1917C76.7506 11.8501 77.135 12.2115 77.135 12.7317C77.135 13.2518 76.7506 13.6132 76.1917 13.6132H69.1392V18.6945H75.7968C76.3451 18.6945 76.7295 19.0472 76.7295 19.5761C76.7295 20.105 76.3451 20.4577 75.7968 20.4577H69.1339V25.9181H76.1864C76.7453 25.9181 77.1297 26.2707 77.1297 26.7996C77.1297 27.3286 76.7453 27.69 76.1864 27.69H68.1448C67.5418 27.69 67.1575 27.2933 67.1575 26.6691Z"
    fill="white"
  />
  <path
    d="M80.4285 24.7033C80.358 24.4795 80.3206 24.2467 80.3174 24.0121C80.3174 23.3862 80.67 22.9913 81.2289 22.9913C81.7226 22.9913 82.0311 23.2434 82.1845 23.7706C82.6676 25.4068 84.2262 26.1737 86.2238 26.1737C88.3749 26.1737 89.9264 25.0436 89.9264 23.485C89.9264 22.1573 89.0448 21.2793 86.8533 20.7962L85.0902 20.4118C81.9165 19.7207 80.5448 18.282 80.5448 16.0322C80.5448 13.4193 82.851 11.5874 86.1322 11.5874C88.7768 11.5874 90.9067 12.915 91.478 15.0555C91.5178 15.2169 91.5362 15.3829 91.5326 15.5491C91.5372 15.6677 91.517 15.7858 91.4732 15.8961C91.4294 16.0063 91.3631 16.1061 91.2784 16.1892C91.1937 16.2722 91.0925 16.3366 90.9814 16.3782C90.8704 16.4198 90.7518 16.4377 90.6334 16.4307C90.1274 16.4307 89.8206 16.168 89.6443 15.6637C89.1101 14.0681 87.8036 13.3646 86.0916 13.3646C84.1151 13.3646 82.59 14.3308 82.59 15.9441C82.59 17.1959 83.4346 18.0598 85.5979 18.5235L87.3611 18.9079C90.6651 19.6325 91.9716 20.9496 91.9716 23.1887C91.9716 26.1191 89.6655 27.9492 86.1198 27.9492C83.1384 27.9527 81.0209 26.6127 80.4285 24.7033Z"
    fill="white"
  />
  <path
    d="M99.6252 26.8225V13.6291H95.4096C94.8507 13.6291 94.4663 13.2659 94.4663 12.7475C94.4663 12.2292 94.8507 11.866 95.4096 11.866H105.812C106.373 11.866 106.755 12.2274 106.755 12.7475C106.755 13.2676 106.373 13.6291 105.812 13.6291H101.6V26.8225C101.6 27.4484 101.216 27.8434 100.613 27.8434C100.01 27.8434 99.6252 27.4484 99.6252 26.8225Z"
    fill="white"
  />
  <path
    d="M110.03 26.8224V12.7174C110.03 12.0915 110.414 11.6965 111.019 11.6965C111.623 11.6965 112.006 12.0915 112.006 12.7174V26.8224C112.006 27.4483 111.622 27.8432 111.019 27.8432C110.416 27.8432 110.03 27.4483 110.03 26.8224Z"
    fill="white"
  />
  <path
    d="M52.0579 38.549C51.7487 38.5623 51.4403 38.5099 51.1528 38.3953C50.8653 38.2807 50.6053 38.1066 50.39 37.8843C50.1813 37.663 50.0182 37.4027 49.9102 37.1183C49.8022 36.8339 49.7514 36.531 49.7606 36.227V36.2146C49.7506 35.6037 49.9803 35.0132 50.4006 34.5696C50.6057 34.3447 50.857 34.1666 51.1372 34.0476C51.4175 33.9287 51.7201 33.8716 52.0244 33.8803C52.3417 33.8729 52.6577 33.9231 52.9571 34.0284C53.2314 34.1348 53.4855 34.2874 53.7082 34.4797L53.3803 34.8658C53.004 34.5267 52.5133 34.3428 52.0068 34.351C51.774 34.3451 51.5427 34.3906 51.3294 34.4841C51.1161 34.5777 50.926 34.717 50.7726 34.8923C50.4477 35.2495 50.2722 35.7178 50.2825 36.2005V36.2146C50.2674 36.7087 50.4451 37.1892 50.7779 37.5546C50.9435 37.7313 51.1454 37.87 51.3697 37.9613C51.594 38.0526 51.8354 38.0943 52.0773 38.0835C52.5514 38.0924 53.0132 37.9324 53.3803 37.6322V36.5108H52.0121V36.0524H53.8757V37.8526C53.3824 38.3107 52.731 38.5602 52.0579 38.549Z"
    fill="white"
  />
  <path
    d="M57.4778 38.4714V33.9561H59.4172C59.9726 33.9561 60.3993 34.1077 60.7008 34.4074C60.8162 34.5228 60.907 34.6604 60.9676 34.812C61.0283 34.9635 61.0574 35.1258 61.0534 35.289V35.3031C61.0599 35.4652 61.0334 35.6269 60.9755 35.7784C60.9177 35.93 60.8296 36.0682 60.7166 36.1846C60.4757 36.4187 60.1673 36.571 59.8351 36.6201L61.2209 38.4644H60.595L59.2867 36.7101H57.9961V38.4644L57.4778 38.4714ZM57.9873 36.2587H59.3731C59.6732 36.2728 59.9691 36.1846 60.2124 36.0083C60.3166 35.9297 60.4003 35.8271 60.4565 35.7092C60.5126 35.5914 60.5396 35.4618 60.535 35.3313V35.3172C60.5408 35.1918 60.5162 35.0669 60.4634 34.953C60.4106 34.8392 60.3312 34.7397 60.2318 34.6631C59.982 34.4919 59.6824 34.4088 59.3802 34.4268H57.9873V36.2587Z"
    fill="white"
  />
  <path
    d="M68.3369 37.8615C67.8976 38.2995 67.3025 38.5456 66.6822 38.5456C66.0618 38.5456 65.4667 38.2995 65.0275 37.8615C64.604 37.4211 64.3726 36.8308 64.3839 36.22V36.2076C64.3786 35.9036 64.4333 35.6014 64.545 35.3186C64.6566 35.0357 64.823 34.7776 65.0345 34.5591C65.4742 34.1219 66.0691 33.8765 66.6892 33.8765C67.3093 33.8765 67.9042 34.1219 68.3439 34.5591C68.5541 34.7769 68.7192 35.034 68.83 35.3156C68.9407 35.5973 68.9948 35.898 68.9892 36.2006V36.2147C68.9942 36.5186 68.9391 36.8205 68.8272 37.1031C68.7152 37.3857 68.5486 37.6434 68.3369 37.8615ZM65.4118 37.537C65.5763 37.708 65.7736 37.8439 65.9919 37.9368C66.2102 38.0297 66.445 38.0775 66.6822 38.0775C66.9194 38.0775 67.1542 38.0297 67.3724 37.9368C67.5907 37.8439 67.788 37.708 67.9525 37.537C68.2857 37.1814 68.4656 36.7089 68.4532 36.2218V36.2094C68.4646 35.719 68.2822 35.2438 67.9454 34.8871C67.781 34.7162 67.5837 34.5802 67.3654 34.4873C67.1471 34.3945 66.9123 34.3466 66.6751 34.3466C66.4379 34.3466 66.2031 34.3945 65.9849 34.4873C65.7666 34.5802 65.5693 34.7162 65.4048 34.8871C65.0724 35.2431 64.8932 35.7155 64.9058 36.2024V36.2165C64.8942 36.7061 65.0761 37.1805 65.4118 37.537Z"
    fill="white"
  />
  <path
    d="M74.3228 38.5419C74.072 38.5542 73.8213 38.5151 73.586 38.4272C73.3508 38.3393 73.1359 38.2044 72.9546 38.0306C72.6161 37.6886 72.4451 37.2055 72.4451 36.5813V33.9561H72.9546V36.5496C72.9287 36.9568 73.0578 37.3586 73.316 37.6745C73.5908 37.9267 73.9494 38.0679 74.3224 38.0709C74.6953 38.0738 75.0561 37.9382 75.3348 37.6903C75.577 37.4376 75.6974 37.068 75.6963 36.5813V33.9561H76.2058V36.5426C76.2058 37.1879 76.0371 37.6827 75.6998 38.0271C75.5179 38.2028 75.3018 38.3392 75.0649 38.4278C74.828 38.5164 74.5754 38.5552 74.3228 38.5419Z"
    fill="white"
  />
  <path
    d="M79.8694 38.4714V33.956H81.5602C82.0044 33.9322 82.4423 34.0686 82.7944 34.3404C82.947 34.4675 83.0681 34.6282 83.1482 34.8099C83.2283 34.9916 83.2654 35.1893 83.2563 35.3877V35.4018C83.2665 35.6108 83.2258 35.8192 83.1376 36.009C83.0495 36.1988 82.9166 36.3643 82.7503 36.4914C82.383 36.7587 81.9367 36.8953 81.4826 36.8793H80.386V38.4661L79.8694 38.4714ZM80.3789 36.4138H81.495C81.8173 36.4297 82.1352 36.3331 82.3942 36.1406C82.503 36.0555 82.5903 35.9462 82.6491 35.8212C82.7079 35.6963 82.7366 35.5592 82.7327 35.4212V35.4089C82.7406 35.2707 82.7153 35.1326 82.6589 35.0062C82.6024 34.8798 82.5165 34.7688 82.4083 34.6825C82.1511 34.5013 81.8409 34.4113 81.5267 34.4268H80.3842L80.3789 36.4138Z"
    fill="white"
  />
  <path
    d="M21.9244 43.8467C17.5882 43.8467 13.3493 42.5608 9.74388 40.1517C6.13842 37.7426 3.32832 34.3185 1.66891 30.3124C0.00949949 26.3062 -0.424677 21.8979 0.421282 17.645C1.26724 13.3921 3.35534 9.48551 6.42153 6.41933C9.48771 3.35314 13.3943 1.26504 17.6472 0.419084C21.9001 -0.426875 26.3084 0.00730222 30.3146 1.66671C34.3207 3.32612 37.7448 6.13623 40.1539 9.74168C42.563 13.3471 43.8489 17.586 43.8489 21.9222C43.8423 27.735 41.5303 33.3077 37.4201 37.4179C33.3099 41.5281 27.7372 43.8401 21.9244 43.8467ZM21.9244 0.3522C17.6579 0.3522 13.4871 1.61741 9.9396 3.98783C6.3921 6.35824 3.62719 9.7274 1.99452 13.6692C0.361855 17.6111 -0.065236 21.9485 0.76726 26.1331C1.59976 30.3177 3.65445 34.1614 6.67149 37.1782C9.68854 40.195 13.5324 42.2494 17.7171 43.0815C21.9017 43.9137 26.2391 43.4862 30.1808 41.8532C34.1225 40.2203 37.4915 37.4551 39.8616 33.9074C42.2317 30.3597 43.4966 26.1888 43.4962 21.9222C43.4892 16.2034 41.2142 10.7207 37.1702 6.67703C33.1261 2.63333 27.6433 0.358732 21.9244 0.3522ZM21.9244 37.6669C21.5242 37.6669 21.131 37.6528 20.752 37.6228C20.0671 37.5727 19.3863 37.4778 18.7138 37.339C18.0398 37.2 17.3759 37.0156 16.7268 36.7871C16.0774 36.5619 15.4441 36.2927 14.8314 35.9814C14.2182 35.6726 13.6263 35.3233 13.0595 34.9358C11.9225 34.1599 10.8918 33.2388 9.99339 32.196C8.64151 30.6308 7.6132 28.8133 6.96787 26.8484C6.75066 26.1982 6.57922 25.5337 6.4548 24.8596C6.32611 24.1854 6.24247 23.5033 6.20444 22.8179C6.18857 22.5146 6.17975 22.2149 6.17975 21.9363C6.17975 21.5361 6.19562 21.1429 6.22383 20.7639C6.27413 20.079 6.36895 19.3982 6.50769 18.7257C6.64447 18.0478 6.82648 17.3799 7.0525 16.7263C7.27687 16.0766 7.5461 15.4433 7.85825 14.831C8.4805 13.6016 9.26245 12.4598 10.1838 11.4352C10.6412 10.9228 11.1312 10.4405 11.6507 9.99119C12.1715 9.54436 12.7211 9.13208 13.2957 8.757C13.8701 8.37893 14.4692 8.03966 15.0888 7.74145C15.7072 7.44181 16.3451 7.18439 16.9983 6.97096C17.6502 6.75351 18.3165 6.58207 18.9924 6.45789C19.6672 6.32899 20.3498 6.24534 21.0358 6.20753C22.4096 6.13171 23.7874 6.23364 25.1351 6.51079C25.8081 6.64702 26.4713 6.82784 27.1204 7.05207C27.77 7.27644 28.4034 7.54567 29.0157 7.85781C29.6289 8.16663 30.2209 8.51591 30.7877 8.90334C31.3554 9.29135 31.8973 9.71599 32.4097 10.1746C33.9541 11.5497 35.2115 13.2165 36.1095 15.0791C37.0076 16.9418 37.5286 18.9636 37.6427 21.0283C37.6585 21.3298 37.6674 21.6296 37.6674 21.9099C37.6674 22.3101 37.6533 22.7033 37.6233 23.0824C37.5731 23.7672 37.4783 24.4481 37.3394 25.1205C36.9181 27.145 36.1014 29.0665 34.9363 30.7749C34.5492 31.3428 34.1251 31.8847 33.6668 32.3969C33.2086 32.9097 32.7174 33.3921 32.1964 33.8409C31.6769 34.2887 31.1279 34.701 30.5532 35.0751C29.9783 35.4525 29.3793 35.7917 28.7601 36.0907C28.1416 36.39 27.5036 36.6474 26.8506 36.8612C26.2001 37.084 25.535 37.262 24.86 37.3936C24.1846 37.5222 23.5014 37.6053 22.8148 37.6422C22.5098 37.6581 22.2154 37.6669 21.9244 37.6669ZM21.9244 6.53194C21.6459 6.53194 21.3532 6.54076 21.0552 6.55663C20.3847 6.59319 19.7173 6.67447 19.0576 6.79994C18.4003 6.92265 17.7523 7.09055 17.1182 7.30243C16.4794 7.51074 15.8556 7.76227 15.251 8.05528C13.4259 8.93067 11.7928 10.1598 10.4465 11.6714C9.99965 12.1718 9.58731 12.702 9.21232 13.2583C8.83055 13.811 8.48541 14.3882 8.17913 14.9861C7.57243 16.1865 7.12663 17.4617 6.85327 18.7786C6.71761 19.4365 6.62514 20.1027 6.57646 20.7727C6.54648 21.1429 6.53238 21.5273 6.53238 21.9187C6.53238 22.199 6.54119 22.4917 6.55706 22.7897C6.59373 23.4596 6.67501 24.1264 6.80037 24.7856C6.92269 25.4458 7.09059 26.0968 7.30286 26.7338C7.51147 27.373 7.763 27.9974 8.05572 28.6027C8.34774 29.2075 8.67933 29.7924 9.04835 30.3535C9.41578 30.9169 9.82106 31.4547 10.2614 31.9632C10.6991 32.4725 11.1703 32.9519 11.6719 33.3984C13.4342 34.9685 15.533 36.1136 17.807 36.7456C20.0811 37.3777 22.4698 37.48 24.7895 37.0445C26.111 36.7943 27.3942 36.3729 28.6067 35.791C29.212 35.4989 29.7975 35.1673 30.3592 34.7983C30.9217 34.4303 31.4589 34.0251 31.9672 33.5853C32.476 33.1471 32.9554 32.6759 33.4024 32.1748C35.2051 30.1617 36.4441 27.7081 36.9938 25.0624C37.1295 24.4044 37.222 23.7383 37.2707 23.0683C37.3006 22.698 37.3147 22.3137 37.3147 21.9222C37.3147 21.6419 37.3147 21.351 37.2901 21.0548C37.2548 20.3842 37.1741 19.7168 37.0485 19.0572C36.6059 16.7382 35.6373 14.5517 34.2172 12.6658C32.7971 10.7799 30.9634 9.24483 28.857 8.1787C28.258 7.87423 27.6389 7.61091 27.004 7.39058C25.7346 6.94622 24.4119 6.67231 23.0705 6.57602C22.7002 6.54605 22.3141 6.53194 21.9244 6.53194Z"
    fill="white"
  />
  <path
    d="M21.9245 41.9254C21.4167 41.9254 20.916 41.906 20.4347 41.8707C19.5642 41.8069 18.699 41.6856 17.8446 41.5075C16.9887 41.3296 16.1457 41.094 15.3216 40.8023C14.4969 40.5154 13.6923 40.1738 12.9132 39.7796C12.1347 39.3858 11.3826 38.9417 10.6617 38.4502C9.93952 37.9634 9.25093 37.4286 8.60058 36.8493C6.64044 35.101 5.04382 32.9838 3.90186 30.6185C3.53832 29.8674 3.22383 29.0935 2.96035 28.3017L2.92157 28.1906C2.64679 27.362 2.42941 26.5155 2.27097 25.657C2.10705 24.7995 2.00161 23.9318 1.95537 23.0599C1.93245 22.7073 1.92188 22.3194 1.92188 21.9316C1.92188 21.4255 1.94127 20.923 1.97653 20.4417C2.04054 19.5719 2.16188 18.7073 2.33974 17.8534C2.51764 16.9975 2.75326 16.1546 3.04498 15.3304C3.32747 14.5031 3.66498 13.6955 4.05525 12.9132C4.44881 12.1345 4.89289 11.3824 5.38465 10.6617C5.876 9.93909 6.41556 9.25049 6.99967 8.60058C7.58287 7.94836 8.20836 7.33523 8.8721 6.76517C9.53385 6.19584 10.2317 5.66992 10.9614 5.1907C11.6914 4.71119 12.4524 4.28063 13.2394 3.90186C14.0251 3.52097 14.8356 3.19346 15.6654 2.92157C16.4939 2.64658 17.3405 2.42919 18.199 2.27097C19.0595 2.10655 19.9301 2.00111 20.8049 1.95537C21.1575 1.93245 21.5437 1.92188 21.9333 1.92188C22.4411 1.92188 22.9418 1.94127 23.4232 1.97653C24.2926 2.03864 25.1571 2.15642 26.0114 2.32916C26.8673 2.50749 27.7102 2.7431 28.5344 3.03441C29.3567 3.31956 30.1584 3.66064 30.9341 4.05525C33.2766 5.24354 35.3649 6.87731 37.0821 8.86505C37.652 9.52636 38.1779 10.2243 38.6565 10.9544C39.616 12.416 40.379 13.9976 40.9257 15.6584C41.2005 16.487 41.4178 17.3335 41.5763 18.192C41.7403 19.049 41.8463 19.916 41.8936 20.7873C41.9148 21.1611 41.9254 21.5401 41.9254 21.9157C41.9254 22.4217 41.906 22.9242 41.8707 23.4055C41.8088 24.2755 41.6911 25.1407 41.5181 25.9956C41.1606 27.7092 40.5809 29.3688 39.7937 30.9323C39.4009 31.7123 38.9562 32.4651 38.4626 33.1856C37.9725 33.9086 37.4335 34.5972 36.8493 35.2467C36.2693 35.899 35.6461 36.5116 34.9839 37.0803C34.3231 37.6513 33.6252 38.1779 32.8947 38.6565C32.1654 39.1352 31.4056 39.5658 30.6202 39.9454C29.8338 40.3255 29.0227 40.6524 28.1924 40.9239C27.3633 41.1994 26.5162 41.4174 25.657 41.5763C24.7995 41.7404 23.9318 41.8465 23.0599 41.8936C22.6809 41.9148 22.3018 41.9254 21.9245 41.9254ZM3.21777 27.9509L3.25832 28.0725C3.52482 28.8877 3.84585 29.6841 4.21922 30.4563C5.33996 32.7811 6.90925 34.8615 8.83684 36.5778C9.47454 37.1516 10.1502 37.6817 10.8591 38.1646C12.2782 39.135 13.8197 39.9128 15.4433 40.4778C18.7011 41.6105 22.1987 41.8707 25.5883 41.2325C26.4323 41.0755 27.2647 40.861 28.0796 40.5907C28.8946 40.3235 29.6909 40.0025 30.4633 39.6298C31.2348 39.2572 31.9811 38.8343 32.6972 38.3639C33.4156 37.8936 34.1018 37.3758 34.7512 36.8141C35.4005 36.2547 36.0125 35.6533 36.5831 35.0139C37.1573 34.376 37.6875 33.6997 38.1699 32.9899C39.6237 30.8593 40.6423 28.4626 41.1672 25.9374C41.3402 25.0973 41.458 24.2469 41.5198 23.3914C41.5569 22.9189 41.5745 22.427 41.5745 21.928C41.5745 21.5595 41.5639 21.1858 41.5428 20.8208C41.496 19.965 41.3923 19.1133 41.2325 18.2713C41.0759 17.4279 40.862 16.5961 40.5924 15.7818C39.782 13.3293 38.4983 11.0596 36.8141 9.10131C36.2536 8.45244 35.6517 7.84053 35.0122 7.26943C34.3742 6.69524 33.698 6.16508 32.9881 5.68262C32.2803 5.19805 31.5411 4.76101 30.7754 4.37438C29.241 3.60305 27.6129 3.0341 25.9321 2.68178C25.0926 2.50902 24.2427 2.39123 23.3879 2.32916C22.5319 2.26488 21.6725 2.25782 20.8155 2.308C19.1009 2.40192 17.4062 2.72084 15.7747 3.25656C14.9627 3.52474 14.1694 3.84633 13.3998 4.21922C12.6263 4.59094 11.8788 5.01447 11.1624 5.48691C10.4448 5.95713 9.7587 6.47364 9.10836 7.03317C8.4562 7.5931 7.84187 8.19564 7.26943 8.83684C6.69567 9.47454 6.16553 10.1502 5.68262 10.8591C4.71228 12.2782 3.93443 13.8197 3.3694 15.4433C2.8056 17.0604 2.45588 18.7444 2.32916 20.4523C2.29213 20.9266 2.2745 21.4185 2.2745 21.9157C2.2745 22.2965 2.28508 22.6685 2.308 23.0247C2.39935 24.6966 2.70511 26.3498 3.21777 27.9438V27.9509ZM21.9245 37.6674C21.5243 37.6674 21.1311 37.6533 20.752 37.6233C20.0672 37.5732 19.3863 37.4783 18.7139 37.3395C18.0398 37.2005 17.376 37.0161 16.7268 36.7876C16.0775 36.5624 15.4442 36.2932 14.8315 35.9819C14.2183 35.6731 13.6263 35.3238 13.0595 34.9363C11.9226 34.1604 10.8918 33.2393 9.99345 32.1965C8.64158 30.6313 7.61326 28.8138 6.96793 26.8489C6.75072 26.1987 6.57928 25.5342 6.45486 24.8601C6.32617 24.1858 6.24253 23.5038 6.2045 22.8184C6.18863 22.5151 6.17982 22.2154 6.17982 21.9368C6.17982 21.5366 6.19568 21.1434 6.22389 20.7644C6.27419 20.0795 6.36901 19.3987 6.50776 18.7262C6.64453 18.0483 6.82654 17.3804 7.05256 16.7268C7.27693 16.0771 7.54616 15.4438 7.85831 14.8315C8.48057 13.6021 9.26252 12.4603 10.1839 11.4357C10.6413 10.9233 11.1313 10.441 11.6508 9.99169C12.1716 9.54485 12.7211 9.13258 13.2958 8.7575C13.8702 8.37943 14.4692 8.04015 15.0889 7.74194C15.7072 7.4423 16.3452 7.18489 16.9983 6.97146C17.6502 6.75401 18.3165 6.58257 18.9924 6.45839C19.6672 6.32948 20.3499 6.24584 21.0359 6.20803C22.4097 6.13221 23.7875 6.23414 25.1351 6.51128C25.8082 6.64751 26.4714 6.82834 27.1204 7.05256C27.7701 7.27693 28.4034 7.54616 29.0158 7.85831C29.629 8.16713 30.2209 8.51641 30.7877 8.90384C31.3555 9.29185 31.8973 9.71649 32.4098 10.1751C33.9542 11.5502 35.2115 13.217 36.1096 15.0796C37.0076 16.9423 37.5287 18.9641 37.6427 21.0288C37.6586 21.3303 37.6674 21.6301 37.6674 21.9104C37.6674 22.3106 37.6533 22.7038 37.6233 23.0829C37.5732 23.7677 37.4783 24.4486 37.3395 25.121C36.9181 27.1455 36.1015 29.067 34.9363 30.7754C34.5493 31.3433 34.1252 31.8852 33.6669 32.3974C33.2086 32.9102 32.7175 33.3926 32.1965 33.8414C31.677 34.2892 31.128 34.7015 30.5532 35.0756C29.9784 35.453 29.3794 35.7922 28.7601 36.0912C28.1416 36.3905 27.5037 36.6479 26.8507 36.8617C26.2001 37.0845 25.535 37.2625 24.8601 37.3941C24.1847 37.5227 23.5014 37.6058 22.8149 37.6427C22.5099 37.6586 22.2154 37.6674 21.9245 37.6674ZM21.9245 6.53244C21.6459 6.53244 21.3532 6.54126 21.0553 6.55712C20.3847 6.59368 19.7174 6.67497 19.0577 6.80044C18.4004 6.92315 17.7524 7.09104 17.1182 7.30292C16.4795 7.51123 15.8557 7.76277 15.2511 8.05578C13.4259 8.93117 11.7929 10.1603 10.4466 11.6719C9.99971 12.1723 9.58737 12.7025 9.21239 13.2588C8.83061 13.8115 8.48547 14.3887 8.1792 14.9866C7.57249 16.187 7.12669 17.4622 6.85333 18.7791C6.71767 19.437 6.6252 20.1032 6.57652 20.7732C6.54655 21.1434 6.53244 21.5278 6.53244 21.9192C6.53244 22.1995 6.54126 22.4922 6.55712 22.7902C6.59379 23.4601 6.67507 24.1269 6.80044 24.786C6.92275 25.4463 7.09065 26.0973 7.30292 26.7343C7.51154 27.3735 7.76306 27.9979 8.05578 28.6032C8.3478 29.208 8.6794 29.7929 9.04842 30.354C9.41584 30.9174 9.82112 31.4552 10.2614 31.9637C10.6992 32.473 11.1704 32.9524 11.6719 33.3989C13.4342 34.969 15.5331 36.1141 17.8071 36.7461C20.0811 37.3782 22.4698 37.4805 24.7896 37.045C26.111 36.7948 27.3942 36.3734 28.6067 35.7915C29.2121 35.4994 29.7975 35.1678 30.3593 34.7988C30.9217 34.4308 31.4589 34.0256 31.9672 33.5858C32.4761 33.1476 32.9555 32.6764 33.4024 32.1753C35.2052 30.1622 36.4441 27.7086 36.9939 25.0629C37.1296 24.4049 37.222 23.7388 37.2707 23.0688C37.3007 22.6985 37.3148 22.3141 37.3148 21.9227C37.3148 21.6424 37.3148 21.3515 37.2901 21.0553C37.2548 20.3847 37.1741 19.7173 37.0486 19.0577C36.606 16.7387 35.6374 14.5522 34.2173 12.6663C32.7972 10.7804 30.9634 9.24533 28.8571 8.1792C28.258 7.87473 27.6389 7.61141 27.0041 7.39108C25.7347 6.94672 24.412 6.6728 23.0705 6.57652C22.7003 6.54655 22.3141 6.53244 21.9245 6.53244Z"
    fill="white"
  />
  <path
    d="M16.4657 36.6313L15.0605 40.6338L15.392 40.7502L16.7971 36.7477L16.4657 36.6313Z"
    fill="white"
  />
  <path
    d="M18.0527 41.3717L17.8835 41.3346L17.7036 41.3364L17.7071 41.2994L18.5764 37.1313L18.9219 37.2019L18.0527 41.3717Z"
    fill="white"
  />
  <path
    d="M20.6251 41.7086L20.2725 41.6945L20.5898 37.4348L20.9424 37.4613L20.6251 41.7086Z"
    fill="white"
  />
  <path
    d="M23.0423 41.7208L22.866 41.7173L22.6262 37.477L22.9788 37.4558L23.2186 41.7067L23.0423 41.7208Z"
    fill="white"
  />
  <path
    d="M25.4436 41.4369L24.6501 37.2547L24.9957 37.1877L25.7926 41.4034L25.6058 41.4051L25.4436 41.4369Z"
    fill="white"
  />
  <path
    d="M27.9613 40.8111L26.6284 36.7665L26.9634 36.6572L28.3051 40.7283V40.7565L28.1253 40.7582L27.9613 40.8111Z"
    fill="white"
  />
  <path
    d="M28.8425 35.873L28.5249 36.0261L30.3748 39.8632L30.6925 39.71L28.8425 35.873Z"
    fill="white"
  />
  <path
    d="M32.6601 38.6283L32.6407 38.6054L30.3081 35.0421L30.6043 34.8481L32.9369 38.4114L32.7959 38.5049L32.6601 38.6283Z"
    fill="white"
  />
  <path
    d="M34.7405 37.0768L34.737 37.0733L31.9478 33.8344L32.2157 33.6052L34.9944 36.8317L34.7405 37.0768Z"
    fill="white"
  />
  <path
    d="M36.5866 35.2555L36.5831 35.2519L33.4165 32.4239L33.6528 32.1594L36.8281 34.9963L36.7135 35.132L36.5866 35.2555Z"
    fill="white"
  />
  <path
    d="M38.2104 33.2333L34.6912 30.8354L34.8886 30.5427L38.4396 32.9688L38.3056 33.0922L38.2104 33.2333Z"
    fill="white"
  />
  <path
    d="M35.9061 28.7816L35.7473 29.0964L39.5505 31.015L39.7093 30.7002L35.9061 28.7816Z"
    fill="white"
  />
  <path
    d="M40.6436 28.6438H40.6118L40.5836 28.635L36.5637 27.228L36.6801 26.8948L40.7 28.3017L40.6418 28.4657L40.6436 28.6438Z"
    fill="white"
  />
  <path
    d="M37.2011 24.9233L37.1292 25.2686L41.2993 26.1375L41.3712 25.7923L37.2011 24.9233Z"
    fill="white"
  />
  <path
    d="M41.6979 23.5748H41.6943L37.4329 23.2574L37.4611 22.9048L41.7084 23.2221L41.6979 23.5748Z"
    fill="white"
  />
  <path
    d="M37.477 21.2211L37.4558 20.8684L41.7067 20.6287L41.7226 20.805L41.7173 20.9813L37.477 21.2211Z"
    fill="white"
  />
  <path
    d="M37.2547 19.1969L37.1877 18.8514L41.4034 18.0544L41.4051 18.2413L41.4369 18.4035L37.2547 19.1969Z"
    fill="white"
  />
  <path
    d="M40.7015 15.5545L36.6572 16.8865L36.7675 17.2214L40.8118 15.8894L40.7015 15.5545Z"
    fill="white"
  />
  <path
    d="M39.7106 13.1552L35.8735 15.0051L36.0267 15.3228L39.8637 13.4728L39.7106 13.1552Z"
    fill="white"
  />
  <path
    d="M35.0421 13.5392L34.8481 13.243L38.4114 10.9104L38.5049 11.0532L38.6353 11.1819L38.6054 11.2066L35.0421 13.5392Z"
    fill="white"
  />
  <path
    d="M33.8344 11.8995L33.6052 11.6315L36.8335 8.85278L37.0715 9.11373L37.0698 9.11549L33.8344 11.8995Z"
    fill="white"
  />
  <path
    d="M32.4239 10.4307L32.1594 10.1944L34.9981 7.01904L35.132 7.13365L35.2555 7.26059L35.2519 7.26412L32.4239 10.4307Z"
    fill="white"
  />
  <path
    d="M30.8352 9.15595L30.5425 8.95848L32.9615 5.41284L33.092 5.54155L33.233 5.63676L30.8352 9.15595Z"
    fill="white"
  />
  <path
    d="M30.6954 4.13929L28.7781 7.94312L29.093 8.10183L31.0102 4.298L30.6954 4.13929Z"
    fill="white"
  />
  <path
    d="M27.2279 7.2835L26.8965 7.16714L28.3017 3.14722L28.4657 3.2054L28.6437 3.20364V3.23537L27.2279 7.2835Z"
    fill="white"
  />
  <path
    d="M25.7986 2.47601L24.929 6.646L25.2742 6.71799L26.1438 2.548L25.7986 2.47601Z"
    fill="white"
  />
  <path
    d="M23.2591 6.41443L22.9065 6.38799L23.2239 2.14062L23.5765 2.15297L23.2591 6.41443Z"
    fill="white"
  />
  <path
    d="M20.87 6.39151L20.6284 2.14239L20.8047 2.12476L20.981 2.13181L21.2226 6.37036L20.87 6.39151Z"
    fill="white"
  />
  <path
    d="M18.8514 6.66104L18.0544 2.44366L18.2396 2.44189L18.4035 2.41016L19.1969 6.59405L18.8514 6.66104Z"
    fill="white"
  />
  <path
    d="M15.8867 3.03324L15.5518 3.14355L16.8843 7.18946L17.2193 7.07914L15.8867 3.03324Z"
    fill="white"
  />
  <path
    d="M13.4734 3.98407L13.1558 4.13721L15.0057 7.97424L15.3233 7.8211L13.4734 3.98407Z"
    fill="white"
  />
  <path
    d="M13.2445 8.99916L10.9102 5.43588L11.0547 5.34244L11.1782 5.21021L11.2064 5.24194L13.5407 8.80521L13.2445 8.99916Z"
    fill="white"
  />
  <path
    d="M11.6312 10.2404L8.85254 7.0139L9.11172 6.77588L9.11348 6.77764L11.8992 10.0112L11.6312 10.2404Z"
    fill="white"
  />
  <path
    d="M10.1962 11.6861L7.01904 8.85103L7.13365 8.71527L7.25706 8.59009L7.26059 8.59185L10.4324 11.4217L10.1962 11.6861Z"
    fill="white"
  />
  <path
    d="M8.95837 13.3045L5.41626 10.8891L5.5432 10.7533L5.63665 10.614L9.15584 13.0136L8.95837 13.3045Z"
    fill="white"
  />
  <path
    d="M4.29896 12.8353L4.14014 13.1501L7.94329 15.0688L8.10212 14.7539L4.29896 12.8353Z"
    fill="white"
  />
  <path
    d="M3.2631 15.2143L3.14673 15.5471L7.16611 16.9523L7.28249 16.6195L3.2631 15.2143Z"
    fill="white"
  />
  <path
    d="M6.64532 18.9202L2.47729 18.0527L2.51079 17.8835V17.7036L2.54782 17.7071L6.71584 18.5746L6.64532 18.9202Z"
    fill="white"
  />
  <path
    d="M6.3878 20.9407L2.13867 20.6234L2.15278 20.2708L6.41424 20.5881L6.3878 20.9407Z"
    fill="white"
  />
  <path
    d="M2.14209 23.2186L2.12622 23.0423L2.13151 22.866L6.37006 22.6262L6.39121 22.9788L2.14209 23.2186Z"
    fill="white"
  />
  <path
    d="M2.45952 25.7929H2.44366V25.6113L2.41016 25.4438L6.59405 24.6504L6.66104 24.996L2.45952 25.7929Z"
    fill="white"
  />
  <path
    d="M3.119 28.3034H3.09079L3.08903 28.1236L3.03613 27.9596L7.08074 26.6267L7.19005 26.9617L3.119 28.3034Z"
    fill="white"
  />
  <path
    d="M7.82165 28.5246L3.98462 30.3745L4.13776 30.6921L7.97479 28.8422L7.82165 28.5246Z"
    fill="white"
  />
  <path
    d="M5.43572 32.937L5.34228 32.7942L5.21533 32.6637L5.24178 32.6408L8.80505 30.3064L8.99899 30.6026L5.43572 32.937Z"
    fill="white"
  />
  <path
    d="M7.01376 34.9944L6.77222 34.737L6.77398 34.7353L10.0128 31.9478L10.242 32.2157L7.01376 34.9944Z"
    fill="white"
  />
  <path
    d="M8.85098 36.8281L8.71522 36.7135L8.5918 36.5866L8.59532 36.5848L11.4234 33.4165L11.6878 33.6528L8.85098 36.8281Z"
    fill="white"
  />
  <path
    d="M10.882 38.436L10.7551 38.3056L10.614 38.2104L13.0119 34.6912L13.3045 34.8886L10.882 38.436Z"
    fill="white"
  />
  <path
    d="M14.754 35.7445L12.8367 39.5483L13.1516 39.7071L15.0688 35.9032L14.754 35.7445Z"
    fill="white"
  />
  <path
    d="M22.7744 10.7552L23.2734 11.5539L22.7815 12.4355L22.4852 14.2304L23.2734 15.9371L22.547 16.1716L22.4852 16.6635L21.9069 16.7975L21.8205 17.032L22.3125 17.1307L22.0674 18.0405L22.1538 18.7792L20.1368 18.8533C20.1368 18.8533 19.0666 20.6852 19.0542 21.0184L20.5176 21.3992C20.5176 21.3992 18.7298 25.2693 18.5658 25.5813C18.4019 25.8934 17.9099 26.7785 17.9099 26.7785L15.5579 27.8575L13.4422 27.0536V27.3004L18.2626 32.1384H27.9068C27.9068 32.1384 27.3162 30.8584 27.3003 30.809C27.2341 30.5778 27.1846 30.3421 27.1522 30.1038C27.1699 30.0385 27.3497 29.6947 27.3497 29.6947L29.1534 31.4331L29.8586 31.3679L32.3852 30.0385L32.7131 29.9398L32.5809 30.3665L29.0917 33.5524L24.3524 34.2735L19.4474 35.1551L15.1507 33.5683C15.1507 33.5683 10.526 29.0582 9.98471 27.5737C9.95121 24.0316 10.2968 23.3263 10.2968 23.3263L14.8809 21.1947C14.8809 21.1947 16.5576 18.9996 16.2755 18.9467C14.8315 18.6858 14.6182 18.6364 14.6182 18.6364C14.6182 18.6364 14.0769 17.4886 14.061 17.4216C14.0452 17.3546 13.6185 16.1434 13.6026 16.0287C13.5868 15.9141 13.6026 14.5354 13.6026 14.4208C13.6026 14.3062 13.5762 13.9042 13.5762 13.9042H13.2782L12.9503 14.3132L12.4566 14.4455L11.8836 13.8707L12.2115 12.9891L15.6549 10.1311L15.8859 10.5419L16.0322 10.9845L15.3393 12.0829L15.7819 11.9348L17.5362 10.5084C17.5362 10.5084 19.4068 10.5578 19.5373 10.5578C19.6678 10.5578 20.4559 10.623 20.4559 10.623L19.3628 12.5184L18.2626 13.8636L18.7915 13.846L20.7768 12.1569L21.5102 10.9016L22.7744 10.7552Z"
    fill="white"
  />
  <path
    d="M22.9453 31.4118L26.5368 31.6216L22.6755 21.6194H21.6177L22.9453 31.4118Z"
    fill="white"
  />
  <path
    d="M33.4252 19.5038L32.2651 17.88L31.2319 21.6196L30.9374 21.4239L28.8217 14.5847L26.6319 21.6196L26.3357 26.2213L29.9043 29.9609L31.2072 29.6083L33.8642 27.0094L33.4252 19.5038ZM32.2933 26.6233L30.1035 28.3141L27.9877 25.6183L27.8661 22.9208L28.9839 21.4962L30.6941 25.2181L32.2933 22.6439V26.6233Z"
    fill="#EDD100"
  />
  <path
    d="M130.878 26.4274L124.771 12.6398C124.482 11.9927 124.007 11.6965 123.286 11.6965C122.511 11.6965 122.024 12.0033 121.735 12.6504L115.64 26.4274C115.555 26.5984 115.505 26.785 115.495 26.9758C115.495 27.48 115.994 27.8432 116.678 27.8432C117.207 27.8432 117.528 27.6669 117.752 27.2543C118.149 26.3305 122.895 22.7125 127.218 23.5835L128.685 27.0833C128.909 27.6122 129.249 27.8414 129.842 27.8414C130.524 27.8414 131.023 27.4782 131.023 26.974C131.013 26.7837 130.964 26.5976 130.878 26.4274ZM119.314 23.5535L119.991 21.9403L120.185 21.4783L120.501 20.7272L120.822 19.9621L123.214 14.2636H123.293L126.328 21.4924L126.432 21.7375C125.859 21.697 121.915 21.607 119.314 23.5535Z"
    fill="white"
  />
</svg>