<svg width="32" height="32" viewBox="0 0 32 32" fill="none" xmlns="http://www.w3.org/2000/svg">
<path d="M15.6672 22.3333C11.9852 22.3333 9.00049 19.3487 9.00049 15.6667C9.00049 11.9847 11.9852 9 15.6672 9C19.3492 9 22.3338 11.9847 22.3338 15.6667C22.3338 19.3487 19.3492 22.3333 15.6672 22.3333ZM13.3338 17V18.3333H15.0005V19.6667H16.3338V18.3333H17.0005C17.4425 18.3333 17.8664 18.1577 18.179 17.8452C18.4916 17.5326 18.6672 17.1087 18.6672 16.6667C18.6672 16.2246 18.4916 15.8007 18.179 15.4882C17.8664 15.1756 17.4425 15 17.0005 15H14.3338C14.2454 15 14.1606 14.9649 14.0981 14.9024C14.0356 14.8399 14.0005 14.7551 14.0005 14.6667C14.0005 14.5783 14.0356 14.4935 14.0981 14.431C14.1606 14.3685 14.2454 14.3333 14.3338 14.3333H18.0005V13H16.3338V11.6667H15.0005V13H14.3338C13.8918 13 13.4679 13.1756 13.1553 13.4882C12.8428 13.8007 12.6672 14.2246 12.6672 14.6667C12.6672 15.1087 12.8428 15.5326 13.1553 15.8452C13.4679 16.1577 13.8918 16.3333 14.3338 16.3333H17.0005C17.0889 16.3333 17.1737 16.3685 17.2362 16.431C17.2987 16.4935 17.3338 16.5783 17.3338 16.6667C17.3338 16.7551 17.2987 16.8399 17.2362 16.9024C17.1737 16.9649 17.0889 17 17.0005 17H13.3338Z" fill="#27272A"/>
<rect x="0.5" y="0.5" width="31" height="31" rx="15.5" stroke="#27272A"/>
</svg>
