<svg width="56" height="56" viewBox="0 0 56 56" fill="none" xmlns="http://www.w3.org/2000/svg">
<path d="M28.0001 51.3333C15.1131 51.3333 4.66675 40.887 4.66675 28C4.66675 15.113 15.1131 4.66663 28.0001 4.66663C40.8871 4.66663 51.3334 15.113 51.3334 28C51.3334 40.887 40.8871 51.3333 28.0001 51.3333ZM19.8334 32.6666V37.3333H25.6667V42H30.3334V37.3333H32.6667C34.2138 37.3333 35.6976 36.7187 36.7915 35.6248C37.8855 34.5308 38.5001 33.0471 38.5001 31.5C38.5001 29.9529 37.8855 28.4691 36.7915 27.3752C35.6976 26.2812 34.2138 25.6666 32.6667 25.6666H23.3334C23.024 25.6666 22.7272 25.5437 22.5085 25.3249C22.2897 25.1061 22.1667 24.8094 22.1667 24.5C22.1667 24.1905 22.2897 23.8938 22.5085 23.675C22.7272 23.4562 23.024 23.3333 23.3334 23.3333H36.1667V18.6666H30.3334V14H25.6667V18.6666H23.3334C21.7863 18.6666 20.3026 19.2812 19.2086 20.3752C18.1147 21.4691 17.5001 22.9529 17.5001 24.5C17.5001 26.0471 18.1147 27.5308 19.2086 28.6248C20.3026 29.7187 21.7863 30.3333 23.3334 30.3333H32.6667C32.9762 30.3333 33.2729 30.4562 33.4917 30.675C33.7105 30.8938 33.8334 31.1905 33.8334 31.5C33.8334 31.8094 33.7105 32.1061 33.4917 32.3249C33.2729 32.5437 32.9762 32.6666 32.6667 32.6666H19.8334Z" fill="#EDD100"/>
</svg>
