<svg width="56" height="56" viewBox="0 0 56 56" fill="none" xmlns="http://www.w3.org/2000/svg">
<path d="M22.0605 21.0001C23.4717 19.2921 25.6081 18.2001 27.9993 18.2001C30.3905 18.2001 32.5269 19.2921 33.9381 21.0001C34.8672 22.1265 35.4568 23.494 35.6382 24.9429C35.8196 26.3918 35.5853 27.8623 34.9626 29.1831C34.3399 30.5039 33.3545 31.6204 32.1213 32.4023C30.8881 33.1843 29.4581 33.5995 27.9979 33.5995C26.5377 33.5995 25.1076 33.1843 23.8744 32.4023C22.6412 31.6204 21.6558 30.5039 21.0331 29.1831C20.4104 27.8623 20.1761 26.3918 20.3575 24.9429C20.5389 23.494 21.1286 22.1265 22.0577 21.0001H22.0605Z" fill="#EDD100"/>
<path d="M38.4996 25.9C38.4996 24.1304 38.0628 22.4616 37.29 21H48.9996C50.1136 21 51.1818 21.4425 51.9695 22.2302C52.7571 23.0178 53.1996 24.0861 53.1996 25.2V26.6C53.1996 31.0436 49.8228 35.5936 43.9176 37.1952C43.3108 36.1051 42.4236 35.197 41.348 34.5649C40.2723 33.9328 39.0473 33.5997 37.7996 33.6H35.1396C36.2009 32.618 37.0474 31.4269 37.6257 30.1017C38.2039 28.7765 38.5015 27.3459 38.4996 25.9Z" fill="#EDD100"/>
<path d="M37.8 36.4C38.352 36.3986 38.8988 36.5062 39.409 36.7167C39.9193 36.9273 40.3829 37.2366 40.7732 37.6269C41.1635 38.0172 41.4728 38.4808 41.6833 38.991C41.8939 39.5013 42.0015 40.0481 42 40.6V42C42 47.5188 36.792 53.2 28 53.2C19.208 53.2 14 47.5188 14 42V40.6C13.9985 40.0481 14.1062 39.5013 14.3167 38.991C14.5273 38.4808 14.8366 38.0172 15.2269 37.6269C15.6172 37.2366 16.0808 36.9273 16.591 36.7167C17.1012 36.5062 17.648 36.3986 18.2 36.4H37.8Z" fill="#EDD100"/>
<path d="M2.80005 26.6C2.80005 31.0436 6.17685 35.5936 12.082 37.1952C12.6889 36.1051 13.5761 35.197 14.6517 34.5649C15.7274 33.9328 16.9524 33.5997 18.2001 33.6H20.8601C19.7988 32.618 18.9523 31.4269 18.374 30.1017C17.7958 28.7765 17.4982 27.3459 17.5 25.9C17.5 24.1304 17.9369 22.4616 18.7125 21H7.00005C5.88614 21 4.81785 21.4425 4.0302 22.2302C3.24255 23.0178 2.80005 24.0861 2.80005 25.2V26.6Z" fill="#EDD100"/>
<path d="M24.5001 10.5C24.5001 8.45788 23.6889 6.49936 22.2448 5.05533C20.8008 3.6113 18.8423 2.80005 16.8001 2.80005C14.7579 2.80005 12.7994 3.6113 11.3554 5.05533C9.91134 6.49936 9.1001 8.45788 9.1001 10.5C9.1001 12.5422 9.91134 14.5007 11.3554 15.9448C12.7994 17.3888 14.7579 18.2 16.8001 18.2C18.8423 18.2 20.8008 17.3888 22.2448 15.9448C23.6889 14.5007 24.5001 12.5422 24.5001 10.5Z" fill="#EDD100"/>
<path d="M46.9 10.5C46.9 8.45788 46.0887 6.49936 44.6447 5.05533C43.2007 3.6113 41.2422 2.80005 39.2 2.80005C37.1578 2.80005 35.1993 3.6113 33.7553 5.05533C32.3112 6.49936 31.5 8.45788 31.5 10.5C31.5 12.5422 32.3112 14.5007 33.7553 15.9448C35.1993 17.3888 37.1578 18.2 39.2 18.2C41.2422 18.2 43.2007 17.3888 44.6447 15.9448C46.0887 14.5007 46.9 12.5422 46.9 10.5Z" fill="#EDD100"/>
</svg>
