<svg width="32" height="32" viewBox="0 0 32 32" fill="none" xmlns="http://www.w3.org/2000/svg">
<path d="M14.5028 14.2C14.906 13.712 15.5164 13.4 16.1996 13.4C16.8828 13.4 17.4932 13.712 17.8964 14.2C18.1619 14.5218 18.3303 14.9125 18.3822 15.3265C18.434 15.7405 18.3671 16.1607 18.1891 16.538C18.0112 16.9154 17.7297 17.2344 17.3773 17.4578C17.025 17.6812 16.6164 17.7998 16.1992 17.7998C15.782 17.7998 15.3734 17.6812 15.0211 17.4578C14.6687 17.2344 14.3872 16.9154 14.2093 16.538C14.0314 16.1607 13.9644 15.7405 14.0163 15.3265C14.0681 14.9125 14.2366 14.5218 14.502 14.2H14.5028Z" fill="#27272A"/>
<path d="M19.1997 15.6C19.1997 15.0944 19.0749 14.6176 18.8541 14.2H22.1997C22.518 14.2 22.8232 14.3264 23.0482 14.5515C23.2733 14.7765 23.3997 15.0817 23.3997 15.4V15.8C23.3997 17.0696 22.4349 18.3696 20.7477 18.8272C20.5743 18.5157 20.3208 18.2563 20.0135 18.0757C19.7062 17.8951 19.3562 17.7999 18.9997 17.8H18.2397C18.5429 17.5194 18.7848 17.1791 18.95 16.8005C19.1152 16.4219 19.2002 16.0131 19.1997 15.6Z" fill="#27272A"/>
<path d="M18.9998 18.6C19.1575 18.5996 19.3138 18.6303 19.4596 18.6905C19.6053 18.7506 19.7378 18.839 19.8493 18.9505C19.9608 19.0621 20.0492 19.1945 20.1094 19.3403C20.1695 19.4861 20.2003 19.6423 20.1998 19.8V20.2C20.1998 21.7768 18.7118 23.4 16.1998 23.4C13.6878 23.4 12.1998 21.7768 12.1998 20.2V19.8C12.1994 19.6423 12.2302 19.4861 12.2903 19.3403C12.3505 19.1945 12.4389 19.0621 12.5504 18.9505C12.6619 18.839 12.7943 18.7506 12.9401 18.6905C13.0859 18.6303 13.2421 18.5996 13.3998 18.6H18.9998Z" fill="#27272A"/>
<path d="M9 15.8C9 17.0696 9.9648 18.3696 11.652 18.8272C11.8254 18.5157 12.0789 18.2563 12.3862 18.0757C12.6935 17.8951 13.0435 17.7999 13.4 17.8H14.16C13.8568 17.5194 13.6149 17.1791 13.4497 16.8005C13.2845 16.4219 13.1995 16.0131 13.2 15.6C13.2 15.0944 13.3248 14.6176 13.5464 14.2H10.2C9.88174 14.2 9.57652 14.3264 9.35147 14.5515C9.12643 14.7765 9 15.0817 9 15.4V15.8Z" fill="#27272A"/>
<path d="M15.2002 11.2C15.2002 10.6165 14.9684 10.0569 14.5558 9.64437C14.1432 9.23179 13.5836 9 13.0002 9C12.4167 9 11.8571 9.23179 11.4445 9.64437C11.0319 10.0569 10.8002 10.6165 10.8002 11.2C10.8002 11.7835 11.0319 12.3431 11.4445 12.7556C11.8571 13.1682 12.4167 13.4 13.0002 13.4C13.5836 13.4 14.1432 13.1682 14.5558 12.7556C14.9684 12.3431 15.2002 11.7835 15.2002 11.2Z" fill="#27272A"/>
<path d="M21.5998 11.2C21.5998 10.6165 21.3681 10.0569 20.9555 9.64437C20.5429 9.23179 19.9833 9 19.3998 9C18.8164 9 18.2568 9.23179 17.8442 9.64437C17.4316 10.0569 17.1998 10.6165 17.1998 11.2C17.1998 11.7835 17.4316 12.3431 17.8442 12.7556C18.2568 13.1682 18.8164 13.4 19.3998 13.4C19.9833 13.4 20.5429 13.1682 20.9555 12.7556C21.3681 12.3431 21.5998 11.7835 21.5998 11.2Z" fill="#27272A"/>
<rect x="0.5" y="0.5" width="31" height="31" rx="15.5" stroke="#27272A"/>
</svg>
