<svg width="32" height="32" viewBox="0 0 32 32" fill="none" xmlns="http://www.w3.org/2000/svg">
<path d="M10.5218 10.2173L15.9998 9L21.4778 10.2173C21.6258 10.2502 21.7582 10.3326 21.8531 10.4509C21.948 10.5692 21.9997 10.7163 21.9998 10.868V17.526C21.9997 18.1845 21.8371 18.8328 21.5263 19.4133C21.2156 19.9939 20.7663 20.4888 20.2184 20.854L15.9998 23.6667L11.7811 20.854C11.2333 20.4888 10.7841 19.9941 10.4733 19.4136C10.1626 18.8332 9.99991 18.185 9.99976 17.5267V10.868C9.99978 10.7163 10.0515 10.5692 10.1464 10.4509C10.2413 10.3326 10.3737 10.2502 10.5218 10.2173ZM15.9998 15.6667C16.4418 15.6667 16.8657 15.4911 17.1783 15.1785C17.4908 14.866 17.6664 14.442 17.6664 14C17.6664 13.558 17.4908 13.134 17.1783 12.8215C16.8657 12.5089 16.4418 12.3333 15.9998 12.3333C15.5577 12.3333 15.1338 12.5089 14.8212 12.8215C14.5087 13.134 14.3331 13.558 14.3331 14C14.3331 14.442 14.5087 14.866 14.8212 15.1785C15.1338 15.4911 15.5577 15.6667 15.9998 15.6667ZM13.0178 19H18.9818C18.9009 18.2656 18.552 17.5869 18.0017 17.0938C17.4514 16.6008 16.7386 16.3281 15.9998 16.3281C15.2609 16.3281 14.5481 16.6008 13.9978 17.0938C13.4475 17.5869 13.0986 18.2656 13.0178 19Z" fill="#27272A"/>
<rect x="0.5" y="0.5" width="31" height="31" rx="15.5" stroke="#27272A"/>
</svg>
