<svg width="56" height="56" viewBox="0 0 56 56" fill="none" xmlns="http://www.w3.org/2000/svg">
<path d="M8.827 6.59404L28 2.33337L47.173 6.59404C47.6911 6.70922 48.1545 6.99763 48.4867 7.41165C48.8188 7.82568 48.9999 8.34058 49 8.87137V32.1744C48.9998 34.4791 48.4307 36.7481 47.3431 38.7801C46.2555 40.812 44.683 42.544 42.7653 43.8224L28 53.6667L13.2347 43.8224C11.3173 42.5442 9.74507 40.8126 8.65748 38.7811C7.56988 36.7496 7.00055 34.481 7 32.1767V8.87137C7.00009 8.34058 7.18116 7.82568 7.51331 7.41165C7.84546 6.99763 8.30885 6.70922 8.827 6.59404ZM28 25.6667C29.5471 25.6667 31.0308 25.0521 32.1248 23.9582C33.2188 22.8642 33.8333 21.3805 33.8333 19.8334C33.8333 18.2863 33.2188 16.8025 32.1248 15.7086C31.0308 14.6146 29.5471 14 28 14C26.4529 14 24.9692 14.6146 23.8752 15.7086C22.7812 16.8025 22.1667 18.2863 22.1667 19.8334C22.1667 21.3805 22.7812 22.8642 23.8752 23.9582C24.9692 25.0521 26.4529 25.6667 28 25.6667ZM17.563 37.3334H38.437C38.1542 34.763 36.9327 32.3873 35.0068 30.6617C33.0809 28.9361 30.5859 27.9819 28 27.9819C25.4141 27.9819 22.9191 28.9361 20.9932 30.6617C19.0673 32.3873 17.8458 34.763 17.563 37.3334Z" fill="#EDD100"/>
</svg>
