<svg width="30" height="30" viewBox="0 0 30 30" fill="none" xmlns="http://www.w3.org/2000/svg">
<path d="M14.7251 18.8656L10.0553 12.4689C10.0222 12.4235 10.0032 12.3707 10.0004 12.3162C9.99752 12.2617 10.0109 12.2074 10.0391 12.1593C10.0673 12.1112 10.1093 12.071 10.1606 12.0429C10.2119 12.0149 10.2705 12 10.3303 12L19.6697 12C19.7295 12 19.7881 12.0149 19.8394 12.0429C19.8907 12.071 19.9327 12.1112 19.9609 12.1593C19.9891 12.2074 20.0025 12.2617 19.9996 12.3162C19.9968 12.3707 19.9778 12.4235 19.9447 12.4689L15.2749 18.8656C15.2447 18.907 15.2039 18.9409 15.1559 18.9643C15.1079 18.9877 15.0544 19 15 19C14.9456 19 14.8921 18.9877 14.8441 18.9643C14.7961 18.9409 14.7553 18.907 14.7251 18.8656Z" fill="black"/>
</svg>
