<svg width="48" height="48" viewBox="0 0 48 48" fill="none" xmlns="http://www.w3.org/2000/svg">
  <path d="M14.506 36.6633L15.954 37.4882C18.3959 38.8767 21.1732 39.6057 24 39.6C27.1645 39.6 30.258 38.6851 32.8891 36.9709C35.5203 35.2568 37.5711 32.8204 38.7821 29.9699C39.9931 27.1193 40.31 23.9827 39.6926 20.9566C39.0752 17.9305 37.5514 15.1508 35.3137 12.9691C33.0761 10.7874 30.2252 9.30168 27.1215 8.69975C24.0178 8.09782 20.8007 8.40675 17.8771 9.58748C14.9535 10.7682 12.4546 12.7677 10.6965 15.3331C8.93841 17.8985 8.00003 20.9146 8.00003 24C8.00003 26.8002 8.75403 29.4854 10.168 31.8468L11.012 33.2586L9.70603 37.9406L14.506 36.6633ZM4.00803 43.5L6.71203 33.8124C4.9303 30.8345 3.99422 27.4476 4.00003 24C4.00003 13.2302 12.954 4.5 24 4.5C35.046 4.5 44 13.2302 44 24C44 34.7698 35.046 43.5 24 43.5C20.4656 43.5056 16.9933 42.5936 13.94 40.8577L4.00803 43.5ZM16.782 14.8506C17.05 14.8311 17.32 14.8311 17.588 14.8428C17.696 14.8506 17.804 14.8623 17.912 14.874C18.23 14.9091 18.58 15.0982 18.698 15.3595C19.294 16.6777 19.874 18.0057 20.434 19.3376C20.558 19.634 20.484 20.0142 20.248 20.3847C20.0857 20.6352 19.9101 20.8774 19.722 21.1101C19.496 21.3928 19.01 21.9116 19.01 21.9116C19.01 21.9116 18.812 22.1417 18.888 22.4283C18.916 22.5375 19.008 22.6954 19.092 22.8281L19.21 23.0133C19.722 23.846 20.41 24.6903 21.25 25.4859C21.49 25.7121 21.724 25.9442 21.976 26.1606C22.912 26.966 23.972 27.6231 25.116 28.1106L25.126 28.1145C25.296 28.1866 25.382 28.2257 25.63 28.329C25.754 28.3797 25.882 28.4246 26.012 28.4577C26.1464 28.4911 26.2878 28.4848 26.4185 28.4396C26.5492 28.3945 26.6632 28.3126 26.746 28.2042C28.194 26.4941 28.326 26.3829 28.338 26.3829V26.3868C28.4386 26.2953 28.5581 26.2259 28.6885 26.1832C28.8189 26.1405 28.9572 26.1255 29.094 26.1392C29.214 26.147 29.336 26.1684 29.448 26.2172C30.51 26.691 32.248 27.43 32.248 27.43L33.412 27.939C33.608 28.0307 33.786 28.2471 33.792 28.4557C33.8 28.5864 33.812 28.797 33.766 29.1831C33.702 29.6882 33.546 30.2946 33.39 30.6124C33.2832 30.8294 33.1414 31.0282 32.97 31.2014C32.7682 31.4079 32.5473 31.5959 32.31 31.763C32.2279 31.8231 32.1446 31.8816 32.06 31.9384C31.8113 32.0923 31.5557 32.2355 31.294 32.3675C30.7791 32.6341 30.2103 32.7872 29.628 32.816C29.258 32.8355 28.888 32.8628 28.516 32.8433C28.5 32.8433 27.38 32.6736 27.38 32.6736C24.5365 31.9444 21.9068 30.5783 19.7 28.6839C19.248 28.2959 18.83 27.8786 18.402 27.4632C16.622 25.7374 15.278 23.8752 14.462 22.1163C14.0444 21.253 13.8188 20.3133 13.8 19.359C13.7918 18.1751 14.1887 17.0223 14.928 16.083C15.074 15.8997 15.212 15.7086 15.45 15.4883C15.704 15.2543 15.864 15.1295 16.038 15.0437C16.2694 14.9306 16.5218 14.8643 16.78 14.8487L16.782 14.8506Z" fill="white"/>
</svg>
