<svg width="48" height="48" viewBox="0 0 48 48" fill="none" xmlns="http://www.w3.org/2000/svg">
<path d="M46.4996 28.4998H44.9996V1.49999C44.9996 0.67162 44.3281 0 43.4997 0H4.49996C3.6715 0 2.99998 0.67162 2.99998 1.49999V28.4998H1.49999C0.671526 28.4998 0 29.1714 0 29.9998V35.9997C0 36.8281 0.671526 37.4997 1.49999 37.4997H7.01132L4.55762 46.0875C4.28453 47.0436 5.00227 47.9999 6.0007 47.9999C6.65348 47.9999 7.25404 47.5704 7.44229 46.9117L8.20287 44.2497H39.7967L40.5573 46.9118C40.7851 47.7086 41.6157 48.1695 42.4117 47.942C43.2083 47.7144 43.6694 46.8842 43.4419 46.0876L40.9883 37.4997H46.4996C47.3281 37.4997 47.9996 36.8281 47.9996 35.9997V29.9998C47.9996 29.1714 47.3281 28.4998 46.4996 28.4998ZM5.99995 2.99998H41.9997V28.4998H38.9997V26.9998C38.9997 24.5185 36.9811 22.4998 34.4997 22.4998H29.9998C27.5184 22.4998 25.4998 24.5185 25.4998 26.9998V28.4998H5.99995V2.99998ZM35.9997 28.4998H28.4998V26.9998C28.4998 26.1727 29.1727 25.4998 29.9998 25.4998H34.4997C35.3268 25.4998 35.9997 26.1727 35.9997 26.9998V28.4998ZM38.9397 41.2497H9.06002L10.1315 37.4997H37.8682L38.9397 41.2497ZM44.9996 34.4997C43.2556 34.4997 54.8106 34.4997 2.99998 34.4997V31.4998H44.9996V34.4997Z" fill="white"/>
<path d="M28.4999 14.9999C28.4999 11.8967 25.4182 9.72306 22.5 10.758V6.74999C22.5 5.92162 21.8285 5.25 21 5.25C20.1715 5.25 19.5 5.92162 19.5 6.74999V17.9999C19.5 19.3372 21.1232 19.9987 22.061 19.0601C25.0312 20.4843 28.4999 18.3078 28.4999 14.9999ZM24 13.4999C24.827 13.4999 25.5 14.1729 25.5 14.9999C25.5 15.827 24.827 16.4999 24 16.4999C23.1729 16.4999 22.5 15.827 22.5 14.9999C22.5 14.1729 23.1729 13.4999 24 13.4999Z" fill="white"/>
<path d="M14.6889 10.9397C11.7188 9.51552 8.25 11.692 8.25 14.9999C8.25 18.3085 11.7198 20.4838 14.6889 19.0601C15.6267 19.9986 17.25 19.3372 17.25 17.9999V11.9999C17.25 10.6625 15.6268 10.001 14.6889 10.9397ZM12.75 16.4999C11.9229 16.4999 11.25 15.827 11.25 14.9999C11.25 14.1728 11.9229 13.4999 12.75 13.4999C13.5771 13.4999 14.25 14.1728 14.25 14.9999C14.25 15.827 13.5771 16.4999 12.75 16.4999Z" fill="white"/>
<path d="M38.4319 18.1819C39.0177 17.596 39.0176 16.6464 38.4319 16.0606C37.8461 15.4749 36.8963 15.4749 36.3106 16.0606C35.374 16.997 33.75 16.3402 33.75 14.9999C33.75 13.6567 35.3755 13.0043 36.3106 13.9392C36.8963 14.5251 37.8461 14.5251 38.4319 13.9392C39.0176 13.3534 39.0177 12.4037 38.4319 11.818C35.6231 9.00911 30.75 10.9781 30.75 14.9999C30.7499 19.0289 35.6266 20.9873 38.4319 18.1819Z" fill="white"/>
</svg>
