<svg width="48" height="48" viewBox="0 0 48 48" fill="none" xmlns="http://www.w3.org/2000/svg">
<path d="M46.5 9.75H42.75V6.75C42.75 5.92162 42.0785 5.25 41.25 5.25H28.5C26.7092 5.25 25.1003 6.03956 24 7.28775C22.8997 6.03956 21.2907 5.25 19.5 5.25H6.75C5.92163 5.25 5.25 5.92162 5.25 6.75V9.75H1.5C0.671625 9.75 0 10.4216 0 11.25V41.25C0 42.0784 0.671625 42.75 1.5 42.75H46.5C47.3285 42.75 48 42.0784 48 41.25V11.25C48 10.4216 47.3285 9.75 46.5 9.75ZM28.5 8.25H39.75V35.25H28.5C27.408 35.25 26.383 35.5433 25.5 36.0552V11.25C25.5 9.59578 26.8458 8.25 28.5 8.25ZM8.25 8.25H19.5C21.1542 8.25 22.5 9.59578 22.5 11.25V36.0552C21.617 35.5433 20.592 35.25 19.5 35.25H8.25V8.25ZM3 12.75H5.25V36.75C5.25 37.5784 5.92163 38.25 6.75 38.25H19.5C20.6079 38.25 21.5768 38.8542 22.0964 39.75H3V12.75ZM45 39.75H25.9036C26.4232 38.8542 27.3921 38.25 28.5 38.25H41.25C42.0785 38.25 42.75 37.5784 42.75 36.75V12.75H45V39.75Z" fill="white"/>
<path d="M12 14.25H18.75C19.5784 14.25 20.25 13.5784 20.25 12.75C20.25 11.9216 19.5784 11.25 18.75 11.25H12C11.1716 11.25 10.5 11.9216 10.5 12.75C10.5 13.5784 11.1716 14.25 12 14.25Z" fill="white"/>
<path d="M12 20.25H18.75C19.5784 20.25 20.25 19.5784 20.25 18.75C20.25 17.9216 19.5784 17.25 18.75 17.25H12C11.1716 17.25 10.5 17.9216 10.5 18.75C10.5 19.5784 11.1716 20.25 12 20.25Z" fill="white"/>
<path d="M12 26.25H18.75C19.5784 26.25 20.25 25.5784 20.25 24.75C20.25 23.9216 19.5784 23.25 18.75 23.25H12C11.1716 23.25 10.5 23.9216 10.5 24.75C10.5 25.5784 11.1716 26.25 12 26.25Z" fill="white"/>
<path d="M12 32.25H18.75C19.5784 32.25 20.25 31.5784 20.25 30.75C20.25 29.9216 19.5784 29.25 18.75 29.25H12C11.1716 29.25 10.5 29.9216 10.5 30.75C10.5 31.5784 11.1716 32.25 12 32.25Z" fill="white"/>
<path d="M29.25 14.25H36C36.8285 14.25 37.5 13.5784 37.5 12.75C37.5 11.9216 36.8285 11.25 36 11.25H29.25C28.4215 11.25 27.75 11.9216 27.75 12.75C27.75 13.5784 28.4215 14.25 29.25 14.25Z" fill="white"/>
<path d="M29.25 20.25H36C36.8285 20.25 37.5 19.5784 37.5 18.75C37.5 17.9216 36.8285 17.25 36 17.25H29.25C28.4215 17.25 27.75 17.9216 27.75 18.75C27.75 19.5784 28.4215 20.25 29.25 20.25Z" fill="white"/>
<path d="M29.25 26.25H36C36.8285 26.25 37.5 25.5784 37.5 24.75C37.5 23.9216 36.8285 23.25 36 23.25H29.25C28.4215 23.25 27.75 23.9216 27.75 24.75C27.75 25.5784 28.4215 26.25 29.25 26.25Z" fill="white"/>
<path d="M29.25 32.25H36C36.8285 32.25 37.5 31.5784 37.5 30.75C37.5 29.9216 36.8285 29.25 36 29.25H29.25C28.4215 29.25 27.75 29.9216 27.75 30.75C27.75 31.5784 28.4215 32.25 29.25 32.25Z" fill="white"/>
</svg>
