<svg width="48" height="48" viewBox="0 0 48 48" fill="none" xmlns="http://www.w3.org/2000/svg">
<g clip-path="url(#clip0)">
<path d="M45.6389 0.273093L0.640734 31.7718C-0.557342 32.6105 0.03879 34.5006 1.50095 34.5006H46.4991C47.3275 34.5006 47.999 33.829 47.999 33.0006V1.50192C47.999 0.291468 46.6326 -0.422409 45.6389 0.273093ZM44.9992 31.5007H41.9993V30.7507C41.9993 29.9224 41.3278 29.2508 40.4994 29.2508C39.6709 29.2508 38.9994 29.9224 38.9994 30.7507V31.5007H35.9995V30.7507C35.9995 29.9224 35.328 29.2508 34.4996 29.2508C33.6712 29.2508 32.9997 29.9224 32.9997 30.7507V31.5007H29.9998V30.7507C29.9998 29.9224 29.3283 29.2508 28.4998 29.2508C27.6714 29.2508 26.9999 29.9224 26.9999 30.7507V31.5007H24V30.7507C24 29.9224 23.3285 29.2508 22.5001 29.2508C21.6717 29.2508 21.0002 29.9224 21.0002 30.7507V31.5007H18.0003V30.7507C18.0003 29.9224 17.3288 29.2508 16.5003 29.2508C15.6719 29.2508 15.0004 29.9224 15.0004 30.7507V31.5007H6.25932L44.9992 4.38274V31.5007Z" fill="white"/>
<path d="M25.2927 27.0007H38.9994C39.8278 27.0007 40.4993 26.3291 40.4993 25.5008V15.9061C40.4993 14.6996 39.1369 13.9789 38.1392 14.6772L24.4325 24.272C23.2344 25.1107 23.8305 27.0007 25.2927 27.0007ZM37.4995 18.787V24.0009H30.0511L37.4995 18.787Z" fill="white"/>
<path d="M0.000976562 1.50189V13.5014C0.000976562 15.9827 2.01961 18.0012 4.50079 18.0012H7.50066C9.98184 18.0012 12.0005 15.9827 12.0005 13.5014V1.50189C12.0005 0.673457 11.3289 0.00195312 10.5005 0.00195312H1.50091C0.67248 0.00195312 0.000976562 0.673457 0.000976562 1.50189ZM7.50066 15.0013H4.50079C3.67376 15.0013 3.00085 14.3284 3.00085 13.5014V12.0015H9.0006V13.5014C9.0006 14.3284 8.32769 15.0013 7.50066 15.0013ZM9.0006 3.00183V9.00158H3.00085V3.00183H9.0006Z" fill="white"/>
<path d="M44.2492 48.0001H7.50073C7.24312 48.0001 6.98991 47.9337 6.76539 47.8075L1.5156 44.8545C1.0464 44.5906 0.754666 44.0955 0.75101 43.5573C0.747447 43.019 1.03253 42.5201 1.49807 42.2499L6.74786 39.2032C6.97651 39.0704 7.23637 39.0005 7.50073 39.0005H44.2492C45.0777 39.0005 45.7492 39.6721 45.7492 40.5004V46.5002C45.7492 47.3285 45.0777 48.0001 44.2492 48.0001ZM7.89362 45.0002H42.7493V42.0004H7.9044L5.27417 43.5268L7.89362 45.0002Z" fill="white"/>
</g>
<defs>
<clipPath id="clip0">
<rect width="48" height="48" fill="white"/>
</clipPath>
</defs>
</svg>
