<svg width="23" height="24" viewBox="0 0 23 24" fill="none" xmlns="http://www.w3.org/2000/svg">
<path d="M8.97575 10.9952C9.87499 12.575 11.1833 13.8833 12.7631 14.7826L13.6102 13.5961C13.7465 13.4054 13.9479 13.2711 14.1764 13.2189C14.405 13.1666 14.6447 13.1999 14.8503 13.3125C16.2057 14.0532 17.7025 14.4987 19.2424 14.6196C19.4827 14.6387 19.707 14.7476 19.8706 14.9247C20.0342 15.1018 20.125 15.334 20.125 15.5751V19.8512C20.1251 20.0885 20.0371 20.3173 19.8781 20.4935C19.7191 20.6696 19.5005 20.7805 19.2644 20.8047C18.7544 20.8574 18.2419 20.8836 17.7292 20.8833C9.52583 20.8833 2.875 14.2325 2.875 6.02913C2.875 5.51355 2.90088 5.0018 2.95358 4.49388C2.97779 4.25784 3.08869 4.03917 3.26484 3.8802C3.44099 3.72123 3.66985 3.63325 3.90713 3.6333H8.18321C8.42429 3.63327 8.65653 3.7241 8.83361 3.88769C9.0107 4.05128 9.11962 4.2756 9.13867 4.51593C9.25963 6.05577 9.70511 7.55258 10.4458 8.90797C10.5584 9.11359 10.5917 9.35334 10.5394 9.58186C10.4872 9.81038 10.3529 10.0118 10.1622 10.1481L8.97575 10.9952ZM6.55883 10.3656L8.37967 9.06513C7.86292 7.94972 7.50888 6.76594 7.32837 5.54997H4.80125C4.7955 5.70905 4.79262 5.86909 4.79262 6.02913C4.79167 13.1745 10.5838 18.9666 17.7292 18.9666C17.8892 18.9666 18.0492 18.9638 18.2083 18.9571V16.4299C16.9924 16.2494 15.8086 15.8954 14.6932 15.3786L13.3927 17.1995C12.8691 16.996 12.3606 16.7558 11.8709 16.4807L11.8153 16.4491C9.9356 15.3793 8.37898 13.8227 7.30921 11.943L7.27758 11.8874C7.00245 11.3977 6.76227 10.8892 6.55883 10.3656Z" fill="#62B559"/>
</svg>
