<svg width="23" height="25" viewBox="0 0 23 25" fill="none" xmlns="http://www.w3.org/2000/svg">
<g clip-path="url(#clip0)">
<path d="M11.5 24.4863L5.40117 18.1223C4.19495 16.8637 3.37351 15.26 3.04072 13.5142C2.70793 11.7684 2.87874 9.95877 3.53155 8.31425C4.18436 6.66972 5.28985 5.26412 6.70822 4.27519C8.12659 3.28626 9.79414 2.75842 11.5 2.75842C13.2059 2.75842 14.8734 3.28626 16.2918 4.27519C17.7102 5.26412 18.8156 6.66972 19.4685 8.31425C20.1213 9.95877 20.2921 11.7684 19.9593 13.5142C19.6265 15.26 18.8051 16.8637 17.5988 18.1223L11.5 24.4863ZM16.2438 16.7083C17.1819 15.7293 17.8207 14.4821 18.0795 13.1242C18.3383 11.7664 18.2054 10.3589 17.6976 9.0799C17.1899 7.80086 16.33 6.70765 15.2269 5.93851C14.1237 5.16937 12.8268 4.75885 11.5 4.75885C10.1732 4.75885 8.87629 5.16937 7.77312 5.93851C6.66996 6.70765 5.81014 7.80086 5.30238 9.0799C4.79462 10.3589 4.66173 11.7664 4.92052 13.1242C5.17931 14.4821 5.81814 15.7293 6.75625 16.7083L11.5 21.6583L16.2438 16.7083ZM11.5 13.7583C10.9917 13.7583 10.5042 13.5476 10.1447 13.1726C9.78527 12.7975 9.58334 12.2888 9.58334 11.7583C9.58334 11.2279 9.78527 10.7192 10.1447 10.3441C10.5042 9.96906 10.9917 9.75834 11.5 9.75834C12.0083 9.75834 12.4958 9.96906 12.8553 10.3441C13.2147 10.7192 13.4167 11.2279 13.4167 11.7583C13.4167 12.2888 13.2147 12.7975 12.8553 13.1726C12.4958 13.5476 12.0083 13.7583 11.5 13.7583Z" fill="#62B559"/>
</g>
<defs>
<clipPath id="clip0">
<rect width="23" height="24" fill="white" transform="translate(0 0.758301)"/>
</clipPath>
</defs>
</svg>
