<svg width="48" height="48" viewBox="0 0 48 48" fill="none" xmlns="http://www.w3.org/2000/svg">
<g clip-path="url(#clip0)">
<path d="M28.8379 19.3821C28.4495 19.3821 28.1348 19.6968 28.1348 20.0852V21.6294C28.1348 22.0178 28.4495 22.3325 28.8379 22.3325C29.2263 22.3325 29.541 22.0178 29.541 21.6294V20.0852C29.541 19.6969 29.2262 19.3821 28.8379 19.3821Z" fill="#FC9928"/>
<path d="M37.0239 19.3821C36.6355 19.3821 36.3208 19.6968 36.3208 20.0852V21.6294C36.3208 22.0178 36.6355 22.3325 37.0239 22.3325C37.4123 22.3325 37.7271 22.0178 37.7271 21.6294V20.0852C37.7271 19.6969 37.4122 19.3821 37.0239 19.3821Z" fill="#FC9928"/>
<path d="M34.7118 23.5474C34.3234 23.5474 34.0087 23.8621 34.0087 24.2505C34.0087 24.8448 33.5253 25.3282 32.931 25.3282C32.3367 25.3282 31.8533 24.8448 31.8533 24.2505C31.8533 23.8621 31.5386 23.5474 31.1501 23.5474C30.7617 23.5474 30.447 23.8621 30.447 24.2505C30.447 25.6202 31.5613 26.7345 32.931 26.7345C34.3006 26.7345 35.4149 25.6202 35.4149 24.2505C35.4149 23.8621 35.1001 23.5474 34.7118 23.5474Z" fill="#FC9928"/>
<path d="M40.4682 32.1616H39.5208L37.1085 30.851V29.7701C39.541 28.5114 41.1982 26.2706 41.782 23.7686C43.5207 23.5401 44.8671 22.0485 44.8671 20.2485C44.8671 19.3001 44.4987 18.4391 43.8946 17.8025C43.9727 17.6892 44.0186 17.5521 44.0186 17.404V12.3523C44.0186 9.36797 41.5907 6.94003 38.6064 6.94003H38.3867C37.3599 5.87297 35.9456 5.26716 34.4568 5.26716H25.8159C25.1067 3.27309 23.2888 1.86825 21.1663 1.69359C20.3892 0.665719 19.1571 0 17.7721 0H10.9512C9.45545 0 8.02848 0.465469 6.82464 1.34616C6.51113 1.57537 6.44298 2.01534 6.67229 2.32866C6.90151 2.64234 7.34157 2.71041 7.65479 2.481C8.6162 1.77797 9.75601 1.40625 10.9512 1.40625H17.7721C19.341 1.40625 20.6191 2.682 20.6191 4.25334V7.38375C20.6191 9.09816 19.5355 10.606 17.9675 11.1847C17.9614 11.187 17.9552 11.1892 17.9491 11.1914C17.0337 11.5244 17.5309 11.4338 5.36176 11.4338V6.99563C5.36176 6.20409 5.52376 5.43928 5.84307 4.72266C6.00114 4.368 5.84167 3.95222 5.48701 3.79425C5.13254 3.63619 4.71667 3.79566 4.5586 4.15031C4.15838 5.04825 3.95551 6.00563 3.95551 6.99572V12.137C3.95551 12.285 4.00145 12.4222 4.07954 12.5354C3.47551 13.1721 3.10717 14.0331 3.10717 14.9814C3.10717 16.7813 4.45351 18.2728 6.19201 18.5017C6.63001 20.3782 7.66351 22.0813 9.14167 23.3446C9.67304 23.7988 10.2524 24.1858 10.8657 24.5031V25.5838L8.45326 26.8945H7.5317C5.0686 26.8945 3.0647 28.8984 3.0647 31.3615V37.8166C3.0647 38.205 3.37942 38.5197 3.76782 38.5197H11.1058V41.5641C11.1058 42.2619 11.6736 42.8297 12.3714 42.8297H17.5298C18.2276 42.8297 18.7954 42.2619 18.7954 41.5641V38.5197H20.9522V43.0837C20.9522 43.4722 21.2669 43.7869 21.6553 43.7869H29.0732V46.7344C29.0732 47.4323 29.641 48 30.3388 48H35.497C36.1949 48 36.7627 47.4323 36.7627 46.7344V43.7868H38.8199C39.2083 43.7868 39.523 43.4721 39.523 43.0837C39.523 42.6952 39.2083 42.3805 38.8199 42.3805H36.7627V39.2395C36.7627 38.5417 36.1949 37.9739 35.497 37.9739H34.2593L35.3346 36.4677C35.5822 36.4537 35.817 36.3691 36.0174 36.2197L39.5754 33.5678H40.468C42.1557 33.5678 43.5288 34.9409 43.5288 36.6286V42.3805H42.1011C41.7127 42.3805 41.3979 42.6952 41.3979 43.0837C41.3979 43.4721 41.7127 43.7868 42.1011 43.7868H44.2319C44.6203 43.7868 44.935 43.4721 44.935 43.0837V36.6286C44.9353 34.1655 42.9314 32.1616 40.4682 32.1616ZM9.93348 27.6907L11.5318 26.8223L13.9552 28.4378L13.7816 28.6191L12.6977 29.7508L10.9086 28.4174L9.93348 27.6907ZM17.3428 29.7025L16.1315 28.4378L18.5547 26.8223L20.1531 27.6908L17.389 29.7509L17.3428 29.7025ZM14.6902 29.7034L15.0433 29.3347L16.208 30.5507L15.0239 32.2175L13.8686 30.5611L14.6902 29.7034ZM21.6333 26.8944L19.2209 25.5838V24.5008C20.188 23.9995 21.0655 23.3246 21.8049 22.5023C22.3633 23.1802 23.1674 23.6484 24.08 23.7685C24.6639 26.2703 26.3208 28.5112 28.7536 29.77V30.8509L27.0479 31.7776V31.3614C27.0479 28.8983 25.044 26.8944 22.5808 26.8944H21.6333ZM27.8212 32.9578L29.4195 32.0894L31.8429 33.7049L30.5853 35.018L27.8212 32.9578ZM32.931 34.6018C33.8891 35.6022 33.8105 35.5201 34.0814 35.803L32.8988 37.4596L31.7557 35.8289L32.931 34.6018ZM35.2766 35.0179L34.0191 33.7048L34.4791 33.3982L36.4424 32.0893L38.0407 32.9577L35.2766 35.0179ZM35.7023 30.357V30.8927C34.2833 31.8387 34.7 31.5608 32.9309 32.7402L30.1596 30.8928V30.357C31.0547 30.6446 32.0136 30.7885 32.9309 30.7885C33.8369 30.7884 34.7983 30.6474 35.7023 30.357ZM41.2307 22.3904C40.8759 22.3739 40.5655 22.6268 40.507 22.9769C39.8725 26.772 36.6043 29.3822 32.9309 29.3822C29.2486 29.3822 25.9884 26.7657 25.3547 22.9769C25.2953 22.6215 24.9793 22.3748 24.6311 22.3904C23.4101 22.4413 22.401 21.4557 22.401 20.2484C22.401 19.0661 23.363 18.1042 24.5454 18.1042C24.6391 18.1042 24.9532 18.1462 25.2005 17.8552C25.6772 18.0141 26.2205 18.1072 26.7536 18.1072H35.6596C36.4745 18.1072 37.2695 17.8721 37.9501 17.4369C38.5932 17.8723 39.3528 18.1072 40.1402 18.1072H41.4172C42.5641 18.1599 43.4606 19.0981 43.4606 20.2485C43.4608 21.468 42.4408 22.441 41.2307 22.3904ZM21.593 9.51638C21.681 9.65991 21.7645 9.80653 21.8432 9.95588V11.4006C21.4355 11.3336 21.0536 11.1674 20.7278 10.9167C21.0819 10.5002 21.3756 10.0295 21.593 9.51638ZM37.5401 8.09916C37.7987 8.40253 38.0991 8.34628 38.6064 8.34628C40.8154 8.34628 42.6124 10.1434 42.6124 12.3523V16.7009C41.6859 16.7009 41.0639 16.7009 40.1404 16.7009C39.5089 16.7009 38.9053 16.4649 38.4411 16.0366C38.1799 15.7956 37.7779 15.7877 37.5075 16.0188C36.9926 16.4587 36.3364 16.7009 35.6598 16.7009H26.7538C24.8256 16.7009 23.2494 15.1318 23.2494 13.1965C23.2494 11.9108 23.2494 7.989 23.2494 6.67341H34.4568C35.6443 6.67341 36.7681 7.19306 37.5401 8.09916ZM21.9081 3.25997C22.9367 3.579 23.7993 4.30294 24.2896 5.26706C22.4381 5.26706 22.5053 5.26031 22.4 5.28253C22.2684 5.31019 22.1384 5.37947 22.0363 5.487C22.0328 5.49075 22.0289 5.49403 22.0254 5.49778C22.0254 4.21819 22.0529 3.86362 21.9081 3.25997ZM7.4671 17.7098C7.41029 17.3698 7.11592 17.1227 6.77392 17.1227C6.76435 17.1227 6.7547 17.1229 6.74504 17.1232C6.71607 17.1245 6.6871 17.1256 6.65767 17.1256C5.47538 17.1256 4.51342 16.1636 4.51342 14.9813C4.51342 13.8308 5.40995 12.8927 6.55698 12.8399C17.3316 12.8399 16.9708 12.9159 17.9409 12.6651C18.5687 12.5024 19.1541 12.2305 19.6748 11.8699C20.2812 12.4031 21.0348 12.734 21.843 12.818C21.843 13.3241 21.8039 14.0852 22.2228 15.0892C22.2269 15.099 22.231 15.1089 22.2353 15.1188C22.5168 15.7809 22.9408 16.3767 23.4834 16.8601C21.6933 17.4247 20.6391 19.2911 21.1043 21.1218C21.1061 21.1292 21.1074 21.1367 21.1093 21.1441C19.6088 23.0729 17.2473 24.2093 14.7256 24.108C14.7071 24.1073 14.6886 24.1067 14.6701 24.1058C11.1296 23.9376 8.07685 21.3557 7.4671 17.7098ZM14.5755 25.5081C14.6021 25.5095 14.6288 25.5115 14.6554 25.5127C15.7052 25.5566 16.7877 25.4198 17.8146 25.0897V25.6256L15.0433 27.4732L12.2721 25.6256V25.0898C12.9999 25.3237 13.7882 25.4683 14.5755 25.5081ZM4.47095 37.1134V31.3614C4.47095 29.6737 5.84401 28.3007 7.5317 28.3007H8.3986L9.32739 28.9929L11.9569 30.9528C12.1206 31.0751 12.3335 31.1659 12.5625 31.1931C12.5743 31.1945 12.5861 31.1965 12.598 31.1977L13.7181 32.8034H12.3714C11.6736 32.8034 11.1058 33.3712 11.1058 34.069V37.1134H4.47095ZM12.5122 41.4233C12.5122 36.8342 12.5122 38.7989 12.5122 34.2097H17.3891C17.3891 34.8148 17.3892 40.7073 17.3892 41.4233H12.5122ZM18.7955 37.1134V34.069C18.7955 33.3712 18.2277 32.8034 17.5299 32.8034H17.5298H16.3327L17.4723 31.1991C17.4766 31.1988 17.481 31.198 17.4853 31.1977C17.7001 31.1792 17.9265 31.1005 18.1194 30.9598C18.1228 30.9573 18.1265 30.9552 18.1299 30.9527L20.1949 29.4135L21.6879 28.3007H22.5805C24.2683 28.3007 25.6414 29.6737 25.6414 31.3614V32.1615C22.728 32.1615 20.9522 34.3221 20.9522 36.6285V37.1133H18.7955V37.1134ZM35.3566 46.5938H30.4796C30.4796 45.8504 30.4796 40.2841 30.4796 39.3802H35.3566V46.5938ZM30.3389 37.9739C29.641 37.9739 29.0733 38.5417 29.0733 39.2395V42.3805H22.3585C22.3585 41.7999 22.3585 37.2075 22.3585 36.6286C22.3585 34.9409 23.7316 33.5678 25.4194 33.5678H26.2863L29.8443 36.2197C29.8528 36.226 29.8617 36.2315 29.8703 36.2375C29.8901 36.2515 29.9099 36.2657 29.9304 36.2785C29.932 36.2796 29.9337 36.2804 29.9353 36.2814C30.1021 36.385 30.2886 36.4473 30.484 36.465L31.5418 37.9739H30.3389Z" fill="#FC9928"/>
<path d="M10.9502 14.115C10.5618 14.115 10.2471 14.4297 10.2471 14.8181V16.3623C10.2471 16.7507 10.5618 17.0654 10.9502 17.0654C11.3386 17.0654 11.6533 16.7507 11.6533 16.3623V14.8181C11.6533 14.4297 11.3385 14.115 10.9502 14.115Z" fill="#FC9928"/>
<path d="M19.1365 17.0653C19.5249 17.0653 19.8396 16.7506 19.8396 16.3622V14.8181C19.8396 14.4297 19.5249 14.115 19.1365 14.115C18.7481 14.115 18.4333 14.4297 18.4333 14.8181V16.3623C18.4333 16.7506 18.7482 17.0653 19.1365 17.0653Z" fill="#FC9928"/>
<path d="M15.0433 21.4673C16.413 21.4673 17.5273 20.353 17.5273 18.9833C17.5273 18.5949 17.2126 18.2802 16.8242 18.2802C16.4358 18.2802 16.1211 18.5949 16.1211 18.9833C16.1211 19.5776 15.6376 20.061 15.0433 20.061C14.449 20.061 13.9656 19.5776 13.9656 18.9833C13.9656 18.5949 13.6509 18.2802 13.2625 18.2802C12.874 18.2802 12.5593 18.5949 12.5593 18.9833C12.5593 20.3531 13.6736 21.4673 15.0433 21.4673Z" fill="#FC9928"/>
</g>
<defs>
<clipPath id="clip0">
<rect width="48" height="48" fill="white"/>
</clipPath>
</defs>
</svg>
