<svg width="48" height="48" viewBox="0 0 48 48" fill="none" xmlns="http://www.w3.org/2000/svg">
<g clip-path="url(#clip0)">
<path d="M8.49194 15.432C8.10363 15.432 7.78882 15.7467 7.78882 16.1351V17.8097C7.78882 18.1981 8.10363 18.5128 8.49194 18.5128C8.88026 18.5128 9.19507 18.1981 9.19507 17.8097V16.1351C9.19507 15.7467 8.88026 15.432 8.49194 15.432Z" fill="#FC9928"/>
<path d="M17.3694 18.5128C17.7577 18.5128 18.0725 18.1981 18.0725 17.8097V16.1351C18.0725 15.7467 17.7577 15.432 17.3694 15.432C16.9811 15.432 16.6663 15.7467 16.6663 16.1351V17.8097C16.6663 18.1981 16.9811 18.5128 17.3694 18.5128Z" fill="#FC9928"/>
<path d="M12.9308 23.2866C14.3834 23.2866 15.5651 22.1048 15.5651 20.6521C15.5651 20.2637 15.2503 19.949 14.862 19.949C14.4737 19.949 14.1589 20.2637 14.1589 20.6521C14.1589 21.3293 13.608 21.8803 12.9308 21.8803C12.2536 21.8803 11.7026 21.3293 11.7026 20.6521C11.7026 20.2637 11.3878 19.949 10.9995 19.949C10.6112 19.949 10.2964 20.2637 10.2964 20.6521C10.2965 22.1048 11.4782 23.2866 12.9308 23.2866Z" fill="#FC9928"/>
<path d="M45.1667 39.7531C46.6277 38.8646 47.6055 37.2574 47.6055 35.426C47.6055 32.6357 45.3354 30.3656 42.545 30.3656C40.3662 30.3656 38.5046 31.7498 37.7933 33.6851C37.0821 31.7498 35.2205 30.3656 33.0415 30.3656C30.2511 30.3656 27.9811 32.6357 27.9811 35.426C27.9811 37.2574 28.9589 38.8647 30.42 39.7531C28.7328 40.6818 27.5867 42.4768 27.5867 44.535V47.1716C27.5867 47.56 27.9014 47.8747 28.2898 47.8747H37.7932H47.2969C47.6853 47.8747 48 47.56 48 47.1716V44.535C48 42.4769 46.8539 40.6818 45.1667 39.7531ZM42.545 31.7719C44.5599 31.7719 46.1992 33.4112 46.1992 35.4261C46.1992 37.4411 44.56 39.0803 42.545 39.0803C40.5301 39.0803 38.891 37.4411 38.891 35.4261C38.891 33.4112 40.5302 31.7719 42.545 31.7719ZM39.9236 39.7531C39.0326 40.2435 38.2934 40.9759 37.7934 41.8609C37.2935 40.9759 36.5542 40.2435 35.6632 39.7531C36.6365 39.1612 37.3953 38.2504 37.7934 37.1669C38.1916 38.2504 38.9504 39.1613 39.9236 39.7531ZM29.3875 35.426C29.3875 33.4112 31.0267 31.7719 33.0417 31.7719C35.0567 31.7719 36.6959 33.4111 36.6959 35.426C36.6959 37.441 35.0567 39.0802 33.0417 39.0802C31.0267 39.0802 29.3875 37.441 29.3875 35.426ZM28.9931 44.5351C28.9931 42.3026 30.8092 40.4865 33.0417 40.4865C35.2742 40.4865 37.0904 42.3026 37.0904 44.5351V46.4686H28.9932V44.5351H28.9931ZM46.5937 46.4686H38.4965V44.5351C38.4965 42.3026 40.3127 40.4865 42.5451 40.4865C44.7776 40.4865 46.5937 42.3026 46.5937 44.5351V46.4686Z" fill="#FC9928"/>
<path d="M33.0417 18.5127C34.5138 18.5127 35.7116 17.3151 35.7116 15.8428V14.3563C35.936 13.7363 36.2941 13.1606 36.7547 12.687C39.8941 9.45995 37.6648 4.07149 33.2445 3.90236C31.8193 3.84705 30.4742 4.36052 29.4506 5.34574C27.3615 7.3563 27.3426 10.646 29.3293 12.6876C29.7895 13.1605 30.1473 13.7361 30.3719 14.3563V15.8427C30.3719 17.3151 31.5695 18.5127 33.0417 18.5127ZM34.3053 15.8429C34.3053 16.5397 33.7384 17.1066 33.0417 17.1066C32.3449 17.1066 31.778 16.5397 31.778 15.8429V14.9352H34.3052V15.8429H34.3053ZM30.4257 6.35908C31.1714 5.64142 32.1555 5.26783 33.1906 5.30767C36.4124 5.43114 38.032 9.35758 35.7467 11.7067C35.2349 12.2328 34.8188 12.8557 34.5261 13.529H31.5572C31.2647 12.8554 30.8486 12.2328 30.337 11.707C28.8867 10.2166 28.9076 7.82017 30.4257 6.35908Z" fill="#FC9928"/>
<path d="M33.0417 3.16618C33.4302 3.16618 33.7449 2.85147 33.7449 2.46306V0.828247C33.7449 0.439841 33.4302 0.125122 33.0417 0.125122C32.6533 0.125122 32.3386 0.439841 32.3386 0.828247V2.46306C32.3386 2.85147 32.6534 3.16618 33.0417 3.16618Z" fill="#FC9928"/>
<path d="M28.7081 4.04872C28.9829 4.32332 29.4279 4.32322 29.7025 4.04872C29.9771 3.77403 29.9771 3.32891 29.7025 3.05432L28.5465 1.89838C28.2719 1.62388 27.8267 1.62388 27.5521 1.89838C27.2775 2.17307 27.2775 2.61819 27.5521 2.89279L28.7081 4.04872Z" fill="#FC9928"/>
<path d="M37.3754 4.04872L38.5313 2.89279C38.8059 2.6181 38.8059 2.17297 38.5313 1.89838C38.2567 1.62388 37.8115 1.62388 37.5369 1.89838L36.381 3.05432C36.1064 3.329 36.1064 3.77413 36.381 4.04872C36.6557 4.32332 37.1007 4.32322 37.3754 4.04872Z" fill="#FC9928"/>
<path d="M39.4775 7.48657H41.1124C41.5008 7.48657 41.8155 7.17185 41.8155 6.78345C41.8155 6.39504 41.5008 6.08032 41.1124 6.08032H39.4775C39.0891 6.08032 38.7744 6.39504 38.7744 6.78345C38.7744 7.17185 39.0891 7.48657 39.4775 7.48657Z" fill="#FC9928"/>
<path d="M21.1044 29.2905H20.062L17.4016 27.8451V26.601C18.0744 26.256 18.71 25.8337 19.2919 25.3363C20.8957 23.9655 22.014 22.1144 22.4806 20.0759C24.3566 19.8499 25.8152 18.2482 25.8152 16.3122C25.8152 15.2816 25.4078 14.3477 24.7424 13.6646C24.8378 13.5446 24.8952 13.393 24.8952 13.2277C24.8952 7.2634 24.898 7.68274 24.8887 7.48146C24.9616 7.48999 24.8688 7.48671 26.6057 7.48671C26.9941 7.48671 27.3088 7.17199 27.3088 6.78359C27.3088 6.39518 26.9941 6.08046 26.6057 6.08046H24.9709C24.8622 6.08046 24.7598 6.10577 24.668 6.14984C24.0083 3.87162 21.9806 2.15055 19.5411 1.95865C18.6832 0.80421 17.3443 0.125366 15.8899 0.125366H8.493C4.34259 0.125366 0.966 3.50196 0.966 7.65237V13.2278C0.966 13.3931 1.02338 13.5446 1.11881 13.6647C0.453375 14.3478 0.0460313 15.2817 0.0460313 16.3124C0.0460313 18.2484 1.50459 19.8501 3.38063 20.0761C3.84731 22.1146 4.96556 23.9657 6.56934 25.3365C7.15125 25.834 7.78687 26.2562 8.45972 26.6012V27.8453L5.79938 29.2905H4.78491C2.1465 29.2905 0 31.437 0 34.0753V41.0755C0 41.4639 0.314812 41.7786 0.703125 41.7786H4.52419C4.9125 41.7786 5.22731 41.4639 5.22731 41.0755C5.22731 40.6871 4.9125 40.3723 4.52419 40.3723H1.40625V34.0753C1.40625 32.2124 2.92191 30.6968 4.78491 30.6968H5.74481L10.0512 33.9065C10.2039 34.0203 10.4025 34.0681 10.5912 34.0356L10.9789 35.5546L10.0325 40.3723H7.80544C7.41713 40.3723 7.10231 40.6871 7.10231 41.0755C7.10231 41.4639 7.41713 41.7786 7.80544 41.7786H25.1862C25.5746 41.7786 25.8893 41.4639 25.8893 41.0755V34.0753C25.8893 31.437 23.7428 29.2905 21.1044 29.2905ZM7.2795 30.0867L9.12581 29.0835L11.8425 30.8947L10.3934 32.4076L7.2795 30.0867ZM12.9307 31.7916L14.0841 32.9959L13.6157 34.8314H12.2456L11.7773 32.9959C12.954 31.7672 12.664 32.07 12.9307 31.7916ZM12.2779 36.2377H13.5832L14.3954 40.3723H11.4656L12.2779 36.2377ZM14.0188 30.8947C17.1023 28.839 16.4617 29.2661 16.7355 29.0835L18.5818 30.0867L15.4679 32.4076L14.0188 30.8947ZM2.37234 7.65218C2.37234 4.27718 5.11809 1.53143 8.49309 1.53143H15.89C16.9831 1.53143 17.9819 2.08652 18.5618 3.01634C18.6884 3.2193 18.9095 3.3439 19.1485 3.34727C21.542 3.38102 23.4892 5.35577 23.4892 7.74921V12.5245C22.5389 12.5245 21.7238 12.5245 20.749 12.5245C19.8984 12.5245 19.1058 12.1416 18.5744 11.4741C18.3163 11.1498 17.8485 11.1253 17.555 11.3884C16.7376 12.121 15.6831 12.5245 14.5855 12.5245C14.0774 12.5245 2.8995 12.5245 2.37244 12.5245V7.65218H2.37234ZM4.65628 19.2808C4.59713 18.9272 4.28203 18.6782 3.93356 18.6943C2.56959 18.7489 1.45247 17.6543 1.45247 16.3121C1.45247 15.0321 2.45034 13.9886 3.72666 13.9307H14.5855C15.8 13.9307 16.9743 13.5554 17.9569 12.8628C18.7189 13.5481 19.7048 13.9307 20.749 13.9307H22.1348C23.4112 13.9886 24.409 15.0321 24.409 16.3121C24.409 17.6547 23.2914 18.7489 21.9279 18.6943C21.5745 18.678 21.2637 18.931 21.2051 19.2808C20.5213 23.37 17.0059 26.2765 12.9307 26.2765C8.85459 26.2765 5.33991 23.3688 4.65628 19.2808ZM12.9307 27.6827C13.9417 27.6827 15.0028 27.5205 15.9953 27.1924V27.887L14.6306 28.7968L12.9307 29.9301L9.86606 27.887V27.1924C10.8465 27.5165 11.9066 27.6827 12.9307 27.6827ZM24.483 40.3723H15.8285L14.8822 35.5556L15.2701 34.0356C15.4618 34.0688 15.6599 34.0184 15.8102 33.9065L20.1166 30.6968H21.1044C22.9674 30.6968 24.4831 32.2124 24.4831 34.0753V40.3723H24.483Z" fill="#FC9928"/>
<path d="M35.7778 23.0879V25.0687H35.7088C35.1167 25.0687 34.6349 25.5507 34.6349 26.1431C34.6349 26.3544 34.6974 26.5598 34.8158 26.7374L36.9005 29.8643C37.1 30.1636 37.4338 30.3424 37.7934 30.3424C38.1532 30.3424 38.4871 30.1636 38.6864 29.8643C40.9638 26.4483 40.952 26.5742 40.952 26.143C40.952 25.5507 40.4701 25.0687 39.878 25.0687H39.5967C39.2083 25.0687 38.8936 25.3835 38.8936 25.7719C38.8936 26.054 39.0598 26.2973 39.2996 26.4094L37.7934 28.6687L36.3309 26.475H36.4809C36.8693 26.475 37.1841 26.1603 37.1841 25.7719V22.3848C37.1841 21.9964 36.8693 21.6816 36.4809 21.6816H28.0312C27.6952 21.6816 27.4219 21.4083 27.4219 21.0723C27.4219 20.7363 27.6952 20.4629 28.0312 20.4629H37.7934C38.1294 20.4629 38.4028 20.7363 38.4028 21.0723V22.9814C38.4028 23.3698 38.7175 23.6845 39.1059 23.6845C39.4943 23.6845 39.809 23.3698 39.809 22.9814V21.0723C39.809 19.9609 38.9048 19.0566 37.7934 19.0566H28.0312C26.9198 19.0566 26.0156 19.9609 26.0156 21.0723C26.0156 22.1837 26.9198 23.0879 28.0312 23.0879H35.7778Z" fill="#FC9928"/>
</g>
<defs>
<clipPath id="clip0">
<rect width="48" height="48" fill="white"/>
</clipPath>
</defs>
</svg>
