<svg width="48" height="48" viewBox="0 0 48 48" fill="none" xmlns="http://www.w3.org/2000/svg">
<path d="M47.1724 22.4607H36.5876V20.4166C36.5871 20.118 36.4258 19.8429 36.1655 19.6966L24.8276 13.3242V10.08H27.0703V11.3131C27.0703 11.7702 27.4409 12.1407 27.8979 12.1407H34.6593C35.1163 12.1405 35.4867 11.7699 35.4866 11.3128C35.4866 11.217 35.4698 11.122 35.4372 11.0318L34.7586 9.10349L35.4455 7.21659C35.6009 6.78676 35.3785 6.31235 34.9487 6.15697C34.8586 6.12438 34.7635 6.10773 34.6676 6.10763H31.589V4.90762C31.589 4.45059 31.2184 4.08004 30.7614 4.08004H24.8276V3.07038C24.8276 2.61335 24.457 2.2428 24 2.2428C23.543 2.2428 23.1724 2.61335 23.1724 3.07038V13.3242L11.8345 19.6883C11.5742 19.8346 11.4129 20.1098 11.4124 20.4083V22.4524H0.827586C0.370552 22.4524 0 22.823 0 23.28V44.9297C0 45.3867 0.370552 45.7573 0.827586 45.7573H47.1724C47.6294 45.7573 48 45.3867 48 44.9297V23.2883C48 22.8313 47.6294 22.4607 47.1724 22.4607ZM31.589 9.25245L31.5559 9.21935V7.7959H33.4428L33.1035 8.85521C33.0357 9.03956 33.0357 9.2419 33.1035 9.42625L33.4924 10.4856H28.7255V10.08H30.7614C31.2184 10.08 31.589 9.70949 31.589 9.25245ZM24.8276 5.73521H29.9338V6.96831V8.42487H24.8276V5.73521ZM11.4124 44.1021H1.65517V24.1159H11.4124V44.1021ZM23.1724 44.1021H18.8276V34.6511H23.1724V44.1021ZM29.1724 44.1021H24.8276V34.6511H29.1724V44.1021ZM34.9655 44.1021H30.8276V33.8235C30.8276 33.3664 30.457 32.9959 30 32.9959H18C17.543 32.9959 17.1724 33.3664 17.1724 33.8235V44.1021H13.0345V20.9297L24 14.7559L34.9324 20.8966L34.9655 23.28V44.1021ZM46.3448 44.1021H36.5876V24.1159H46.3448V44.1021Z" fill="#FC9928"/>
<path d="M24.0001 17.2883C22.0836 17.2929 20.5325 18.8477 20.5325 20.7642C20.537 22.6793 22.0932 24.2281 24.0083 24.2235C25.9235 24.2189 27.4722 22.6628 27.4676 20.7476C27.4631 18.8358 25.9119 17.2883 24.0001 17.2883ZM24.0001 22.5683C22.9991 22.5638 22.1914 21.7486 22.1959 20.7476C22.2005 19.7532 23.0055 18.9481 24.0001 18.9435C25.0024 18.9481 25.8125 19.7619 25.8125 20.7642H25.8207C25.8162 21.7652 25.001 22.5729 24.0001 22.5683Z" fill="#FC9928"/>
<path d="M5.30483 25.9365H3.64966V29.2469H5.30483V25.9365Z" fill="#FC9928"/>
<path d="M9.38491 25.9365H7.72974V29.2469H9.38491V25.9365Z" fill="#FC9928"/>
<path d="M18.8606 25.9365H15.5503V27.5917H18.8606V25.9365Z" fill="#FC9928"/>
<path d="M25.6551 25.9365H22.3447V27.5917H25.6551V25.9365Z" fill="#FC9928"/>
<path d="M32.4497 25.9365H29.1394V27.5917H32.4497V25.9365Z" fill="#FC9928"/>
<path d="M18.8606 29.7931H15.5503V31.4483H18.8606V29.7931Z" fill="#FC9928"/>
<path d="M25.6551 29.7931H22.3447V31.4483H25.6551V29.7931Z" fill="#FC9928"/>
<path d="M32.4497 29.7931H29.1394V31.4483H32.4497V29.7931Z" fill="#FC9928"/>
<path d="M5.30483 32.4497H3.64966V35.7601H5.30483V32.4497Z" fill="#FC9928"/>
<path d="M9.38491 32.4497H7.72974V35.7601H9.38491V32.4497Z" fill="#FC9928"/>
<path d="M5.30483 38.9711H3.64966V42.2814H5.30483V38.9711Z" fill="#FC9928"/>
<path d="M9.38491 38.9711H7.72974V42.2814H9.38491V38.9711Z" fill="#FC9928"/>
<path d="M40.2704 25.9365H38.6152V29.2469H40.2704V25.9365Z" fill="#FC9928"/>
<path d="M44.3505 25.9365H42.6953V29.2469H44.3505V25.9365Z" fill="#FC9928"/>
<path d="M40.2704 32.4497H38.6152V35.7601H40.2704V32.4497Z" fill="#FC9928"/>
<path d="M44.3505 32.4497H42.6953V35.7601H44.3505V32.4497Z" fill="#FC9928"/>
<path d="M40.2704 38.9711H38.6152V42.2814H40.2704V38.9711Z" fill="#FC9928"/>
<path d="M44.3505 38.9711H42.6953V42.2814H44.3505V38.9711Z" fill="#FC9928"/>
</svg>
