<svg width="32" height="32" viewBox="0 0 32 32" fill="none" xmlns="http://www.w3.org/2000/svg">
<path d="M9.67077 24.6587L10.6361 25.2227C12.264 26.1722 14.1156 26.6706 16.0001 26.6667C18.1098 26.6667 20.1721 26.0412 21.9262 24.8691C23.6803 23.697 25.0475 22.0311 25.8548 20.082C26.6622 18.133 26.8734 15.9882 26.4618 13.9191C26.0502 11.85 25.0343 9.94937 23.5426 8.45761C22.0508 6.96585 20.1502 5.94995 18.0811 5.53837C16.0119 5.1268 13.8672 5.33803 11.9181 6.14537C9.96906 6.9527 8.30316 8.31987 7.13109 10.074C5.95902 11.8281 5.33343 13.8904 5.33343 16.0001C5.33343 17.9147 5.8361 19.7507 6.77877 21.3654L7.34143 22.3307L6.47077 25.5321L9.67077 24.6587ZM2.6721 29.3334L4.47477 22.7094C3.28695 20.6732 2.66289 18.3574 2.66677 16.0001C2.66677 8.63608 8.6361 2.66675 16.0001 2.66675C23.3641 2.66675 29.3334 8.63608 29.3334 16.0001C29.3334 23.3641 23.3641 29.3334 16.0001 29.3334C13.6438 29.3372 11.329 28.7136 9.29343 27.5267L2.6721 29.3334ZM11.1881 9.74408C11.3668 9.73075 11.5468 9.73075 11.7254 9.73875C11.7974 9.74408 11.8694 9.75208 11.9414 9.76008C12.1534 9.78408 12.3868 9.91341 12.4654 10.0921C12.8628 10.9934 13.2494 11.9014 13.6228 12.8121C13.7054 13.0147 13.6561 13.2747 13.4988 13.5281C13.3906 13.6994 13.2735 13.8649 13.1481 14.0241C12.9974 14.2174 12.6734 14.5721 12.6734 14.5721C12.6734 14.5721 12.5414 14.7294 12.5921 14.9254C12.6108 15.0001 12.6721 15.1081 12.7281 15.1987L12.8068 15.3254C13.1481 15.8947 13.6068 16.4721 14.1668 17.0161C14.3268 17.1707 14.4828 17.3294 14.6508 17.4774C15.2748 18.0281 15.9814 18.4774 16.7441 18.8107L16.7508 18.8134C16.8641 18.8627 16.9214 18.8894 17.0868 18.9601C17.1694 18.9947 17.2548 19.0254 17.3414 19.0481C17.431 19.0709 17.5253 19.0666 17.6124 19.0357C17.6995 19.0049 17.7755 18.9488 17.8308 18.8747C18.7961 17.7054 18.8841 17.6294 18.8921 17.6294V17.6321C18.9592 17.5695 19.0388 17.5221 19.1258 17.4929C19.2127 17.4636 19.3049 17.4534 19.3961 17.4627C19.4761 17.4681 19.5574 17.4827 19.6321 17.5161C20.3401 17.8401 21.4988 18.3454 21.4988 18.3454L22.2748 18.6934C22.4054 18.7561 22.5241 18.9041 22.5281 19.0467C22.5334 19.1361 22.5414 19.2801 22.5108 19.5441C22.4681 19.8894 22.3641 20.3041 22.2601 20.5214C22.1889 20.6697 22.0943 20.8057 21.9801 20.9241C21.8456 21.0653 21.6983 21.1939 21.5401 21.3081C21.4854 21.3492 21.4298 21.3892 21.3734 21.4281C21.2076 21.5333 21.0372 21.6312 20.8628 21.7214C20.5195 21.9038 20.1403 22.0084 19.7521 22.0281C19.5054 22.0414 19.2588 22.0601 19.0108 22.0467C19.0001 22.0467 18.2534 21.9307 18.2534 21.9307C16.3578 21.4321 14.6046 20.498 13.1334 19.2027C12.8321 18.9374 12.5534 18.6521 12.2681 18.3681C11.0814 17.1881 10.1854 15.9147 9.64143 14.7121C9.36299 14.1218 9.21259 13.4793 9.2001 12.8267C9.1946 12.0172 9.45923 11.229 9.9521 10.5867C10.0494 10.4614 10.1414 10.3307 10.3001 10.1801C10.4694 10.0201 10.5761 9.93475 10.6921 9.87608C10.8463 9.79879 11.0146 9.75344 11.1868 9.74275L11.1881 9.74408Z" fill="white"/>
</svg>
