<svg width="18" height="18" viewBox="0 0 18 18" fill="none" xmlns="http://www.w3.org/2000/svg">
<path d="M1.50301 16.5L2.51701 12.774C1.84886 11.6286 1.49783 10.326 1.50001 9C1.50001 4.85775 4.85776 1.5 9.00001 1.5C13.1423 1.5 16.5 4.85775 16.5 9C16.5 13.1423 13.1423 16.5 9.00001 16.5C7.67459 16.5021 6.3725 16.1514 5.22751 15.4838L1.50301 16.5ZM6.29326 5.481C6.19641 5.48701 6.10177 5.51252 6.01501 5.556C5.93365 5.60207 5.85938 5.65967 5.79451 5.727C5.70451 5.81175 5.65351 5.88525 5.59876 5.9565C5.32157 6.31725 5.17247 6.76006 5.17501 7.215C5.17651 7.5825 5.27251 7.94025 5.42251 8.27475C5.72926 8.95125 6.23401 9.6675 6.90076 10.3312C7.06126 10.491 7.21801 10.6515 7.38676 10.8007C8.2143 11.5293 9.20045 12.0548 10.2668 12.3353L10.6935 12.4005C10.8323 12.408 10.971 12.3975 11.1105 12.3907C11.3289 12.3795 11.5422 12.3203 11.7353 12.2175C11.8598 12.1515 11.9183 12.1185 12.0225 12.0525C12.0225 12.0525 12.0548 12.0315 12.1163 11.985C12.2175 11.91 12.2798 11.8568 12.3638 11.769C12.426 11.7045 12.48 11.6287 12.5213 11.5425C12.5798 11.4202 12.6383 11.187 12.6623 10.9928C12.6803 10.8442 12.675 10.7633 12.6728 10.713C12.6698 10.6328 12.603 10.5495 12.5303 10.5142L12.0938 10.3185C12.0938 10.3185 11.4413 10.0343 11.043 9.85275C11.001 9.83445 10.956 9.82402 10.9103 9.822C10.8589 9.81673 10.8071 9.8225 10.7582 9.83893C10.7093 9.85536 10.6645 9.88206 10.6268 9.91725V9.91575C10.623 9.91575 10.5728 9.9585 10.0305 10.6155C9.99939 10.6573 9.95652 10.6889 9.90736 10.7063C9.85821 10.7237 9.805 10.726 9.75451 10.713C9.70564 10.6999 9.65777 10.6834 9.61126 10.6635C9.51826 10.6245 9.48601 10.6095 9.42226 10.5817L9.41851 10.5802C8.98944 10.3929 8.59218 10.1399 8.24101 9.83025C8.14651 9.74775 8.05876 9.65775 7.96876 9.57075C7.67369 9.28818 7.41655 8.96851 7.20376 8.61975L7.15951 8.5485C7.12773 8.50062 7.10203 8.44898 7.08301 8.39475C7.05451 8.2845 7.12876 8.196 7.12876 8.196C7.12876 8.196 7.31101 7.9965 7.39576 7.8885C7.46633 7.79874 7.53217 7.70536 7.59301 7.60875C7.68151 7.46625 7.70926 7.32 7.66276 7.20675C7.45276 6.69375 7.23526 6.183 7.01176 5.676C6.96751 5.5755 6.83626 5.5035 6.71701 5.48925C6.67651 5.48475 6.63601 5.48025 6.59551 5.47725C6.49479 5.47225 6.39386 5.47325 6.29326 5.48025V5.481Z" fill="#62B559"/>
</svg>
